<svg width="100" height="100" viewBox="0 0 100 100" fill="none" xmlns="http://www.w3.org/2000/svg">
<g id="github">
<g id="github_2">
<path id="Vector" d="M50 1C22.3892 1 -0.000183105 23.3855 -0.000183105 51.0002C-0.000183105 73.092 14.3264 91.834 34.1931 98.4456C36.6919 98.9083 37.6095 97.3609 37.6095 96.0402C37.6095 94.848 37.5628 90.909 37.5416 86.7311C23.6311 89.7557 20.6959 80.8317 20.6959 80.8317C18.4215 75.0523 15.1444 73.5159 15.1444 73.5159C10.6081 70.4124 15.4863 70.476 15.4863 70.476C20.5073 70.8289 23.1512 75.6287 23.1512 75.6287C27.6106 83.2728 34.848 81.0627 37.7012 79.7854C38.1498 76.5534 39.4459 74.348 40.8756 73.0994C29.7701 71.8347 18.0953 67.5474 18.0953 48.3889C18.0953 42.9303 20.0485 38.4697 23.2472 34.9682C22.728 33.7086 21.0167 28.6233 23.7315 21.7361C23.7315 21.7361 27.9302 20.3923 37.4852 26.8614C41.4733 25.7532 45.7507 25.198 50 25.1791C54.2493 25.198 58.5299 25.7532 62.5258 26.8614C72.0694 20.3923 76.2622 21.7361 76.2622 21.7361C78.9837 28.6233 77.2716 33.7086 76.7524 34.9682C79.9582 38.4697 81.8981 42.9299 81.8981 48.3889C81.8981 67.5929 70.2013 71.8218 59.0675 73.0594C60.8608 74.6111 62.4588 77.6541 62.4588 82.3187C62.4588 89.0086 62.4008 94.3932 62.4008 96.0402C62.4008 97.3707 63.3007 98.9299 65.8355 98.4389C85.6913 91.8199 99.9998 73.0845 99.9998 51.0002C99.9998 23.3855 77.6135 1 50 1Z" fill="white"/>
<path id="Vector_2" d="M18.7265 72.2265C18.6167 72.4748 18.2253 72.5493 17.8696 72.3791C17.5069 72.2159 17.303 71.8771 17.4206 71.6277C17.5285 71.3721 17.9198 71.3007 18.2818 71.4724C18.6453 71.6352 18.8523 71.9771 18.7265 72.2265ZM21.186 74.421C20.9476 74.6421 20.4813 74.5394 20.1648 74.19C19.8378 73.8414 19.7766 73.3755 20.0186 73.1508C20.2644 72.93 20.7166 73.0332 21.0444 73.3822C21.3715 73.7347 21.435 74.1978 21.1856 74.4214L21.186 74.421ZM22.8734 77.2287C22.5667 77.4416 22.0656 77.242 21.7562 76.7974C21.4499 76.3531 21.4499 75.8197 21.7628 75.606C22.0734 75.3923 22.5667 75.5845 22.8804 76.0256C23.1863 76.4778 23.1863 77.0111 22.873 77.2291L22.8734 77.2287ZM25.7266 80.4808C25.4525 80.7827 24.869 80.7019 24.4416 80.2894C24.0047 79.8863 23.8828 79.3141 24.1576 79.0118C24.4349 78.709 25.0219 78.7941 25.4525 79.2032C25.8866 79.6055 26.0192 80.1819 25.727 80.4808H25.7266ZM29.4143 81.5788C29.2939 81.9701 28.7316 82.1481 28.1654 81.9819C27.5999 81.8105 27.2297 81.3517 27.3438 80.956C27.4615 80.5619 28.0261 80.3764 28.5967 80.5545C29.1614 80.7251 29.5324 81.1803 29.4147 81.5788H29.4143ZM33.6118 82.0442C33.626 82.4568 33.1456 82.7987 32.5511 82.8062C31.9531 82.8191 31.4696 82.4854 31.4633 82.0799C31.4633 81.6635 31.9327 81.3246 32.5303 81.3148C33.1248 81.3031 33.6118 81.6344 33.6118 82.0442ZM37.7348 81.8862C37.8062 82.2885 37.3929 82.7019 36.8027 82.8117C36.2223 82.9175 35.6851 82.6693 35.611 82.2705C35.5388 81.858 35.96 81.445 36.5392 81.338C37.1305 81.2352 37.6595 81.4772 37.7348 81.8862Z" fill="white"/>
</g>
</g>
</svg>
