<svg xmlns="http://www.w3.org/2000/svg" fill="none" viewBox="0 0 24 24" height="24" width="24" style="background-color: #000000ff">
  <g id="Center-Focus-Weak">
    <path id="Union" fill="#ffffff" d="M5 19h4v2H4c-0.55228 0 -1 -0.4477 -1 -1v-5h2zm16 1c0 0.5523 -0.4477 1 -1 1h-5v-2h4v-4h2zM12 8c2.2091 0 4 1.79086 4 4 0 2.2091 -1.7909 4 -4 4 -2.20914 0 -4 -1.7909 -4 -4 0 -2.20914 1.79086 -4 4 -4m0 2c-1.1046 0 -2 0.8954 -2 2s0.8954 2 2 2 2 -0.8954 2 -2 -0.8954 -2 -2 -2M9 5H5v4H3V4l0.00488 -0.10254C3.05621 3.39333 3.48232 3 4 3h5zm11.1025 -1.99512C20.6067 3.05621 21 3.48232 21 4v5h-2V5h-4V3h5z" stroke-width="1"></path>
  </g>
</svg>