<?xml version="1.0" standalone="no"?>
<!DOCTYPE svg PUBLIC "-//W3C//DTD SVG 20010904//EN"
 "http://www.w3.org/TR/2001/REC-SVG-20010904/DTD/svg10.dtd">
<svg version="1.0" xmlns="http://www.w3.org/2000/svg"
 width="530.000000pt" height="466.000000pt" viewBox="0 0 530.000000 466.000000"
 preserveAspectRatio="xMidYMid meet">

<g transform="translate(0.000000,466.000000) scale(0.100000,-0.100000)"
  fill="#ffffff"
  stroke="red"
  stroke-width="80">
<path d="M1324 4270 c-3 -8 -46 -130 -94 -271 l-88 -255 27 -85 c24 -72 127
-358 206 -569 13 -36 83 -231 155 -435 72 -203 140 -392 150 -420 11 -27 101
-279 200 -560 100 -280 221 -620 269 -755 49 -135 97 -272 108 -305 l20 -60
662 -3 c364 -1 660 1 658 5 -3 5 -133 397 -290 873 -157 476 -372 1124 -476
1440 -105 316 -252 764 -329 995 l-138 420 -517 0 c-450 0 -518 -2 -523 -15z"/>
<path d="M2999 4268 c-19 -35 -179 -503 -179 -523 0 -23 43 -152 115 -345 25
-69 172 -478 326 -910 154 -432 307 -859 340 -950 32 -91 124 -347 203 -570
l144 -405 37 -7 c21 -5 318 -7 660 -6 l623 3 -13 40 c-109 334 -982 2974
-1142 3455 l-78 235 -513 0 c-470 0 -515 -1 -523 -17z"/>
<path d="M995 3323 c-7 -18 -150 -430 -545 -1568 -369 -1064 -410 -1183 -410
-1194 0 -8 290 -11 981 -11 642 0 978 3 974 10 -3 5 -50 135 -104 287 -265
747 -505 1423 -623 1753 -72 201 -159 448 -195 550 -35 101 -65 186 -67 188
-2 1 -7 -5 -11 -15z"/>
</g>
</svg>
