<svg width="100" height="100" viewBox="0 0 100 100" fill="none" xmlns="http://www.w3.org/2000/svg">
<g id="bash">
<g id="bash_2">
<path id="Vector" fill-rule="evenodd" clip-rule="evenodd" d="M87.4283 20.408L55.8502 1.66426C54.0155 0.574981 51.9213 0.00012207 49.7877 0.00012207C47.654 0.00012207 45.5598 0.574981 43.7252 1.66426L12.1408 20.408C10.2637 21.5281 8.71036 23.1175 7.6337 25.0198C6.55703 26.9222 5.99407 29.0721 6.00018 31.258V68.7455C5.98858 70.9263 6.54349 73.0728 7.61059 74.9747C8.67769 76.8766 10.2204 78.4689 12.0877 79.5955L43.6658 98.3393C45.5004 99.4285 47.5947 100.003 49.7283 100.003C51.8619 100.003 53.9562 99.4285 55.7908 98.3393L87.3752 79.5955C89.2425 78.4689 90.7852 76.8766 91.8523 74.9747C92.9194 73.0728 93.4743 70.9263 93.4627 68.7455V31.258C93.4801 29.0826 92.9337 26.9397 91.8768 25.0383C90.8198 23.1368 89.2883 21.5416 87.4314 20.408H87.4283ZM62.9689 78.9455V81.633C62.967 81.7987 62.9236 81.9612 62.8429 82.1058C62.7621 82.2505 62.6464 82.3726 62.5064 82.4611L60.9064 83.3768C60.6564 83.508 60.4439 83.3768 60.4439 83.0236V80.3768C59.3144 80.9318 58.0216 81.0573 56.8064 80.7299C56.6127 80.5986 56.5377 80.3486 56.6314 80.1049L57.2033 77.6674C57.251 77.4612 57.3626 77.2753 57.5221 77.1361C57.5675 77.091 57.6204 77.0541 57.6783 77.0268C57.7587 76.9954 57.8479 76.9954 57.9283 77.0268C59.0437 77.3263 60.2321 77.1759 61.2377 76.608C61.952 76.2591 62.5587 75.7234 62.9933 75.0577C63.4279 74.392 63.6743 73.6211 63.7064 72.8268C63.7064 71.458 62.9564 70.8893 61.1439 70.8736C58.8502 70.8736 56.7689 70.4361 56.6752 67.0486C56.7014 65.6025 57.0473 64.1801 57.6881 62.8834C58.3289 61.5868 59.2486 60.4479 60.3814 59.5486V56.8236C60.3877 56.6576 60.4328 56.4953 60.5131 56.3499C60.5934 56.2044 60.7067 56.0799 60.8439 55.9861L62.3877 55.0049C62.6377 54.8736 62.8502 55.0049 62.8502 55.3674V58.0924C63.7959 57.6625 64.8515 57.5358 65.8721 57.7299C66.0908 57.8549 66.1783 58.1299 66.0721 58.3549L65.5314 60.7705C65.4702 61.021 65.3161 61.2389 65.1002 61.3799C65.0377 61.4174 64.9439 61.4049 64.8689 61.3799C63.874 61.1621 62.8335 61.3319 61.9596 61.8549C61.3221 62.1299 60.7761 62.5806 60.3854 63.1545C59.9947 63.7284 59.7754 64.4016 59.7533 65.0955C59.7533 66.3299 60.4033 66.7049 62.5877 66.7518C65.5096 66.7518 66.7658 68.0736 66.8002 71.008C66.7726 72.5254 66.4151 74.0186 65.7524 75.3839C65.0897 76.7492 64.1378 77.9539 62.9627 78.9143L62.9689 78.9455ZM79.5096 74.4143C79.5285 74.528 79.5157 74.6446 79.4727 74.7516C79.4297 74.8585 79.3581 74.9515 79.2658 75.0205L71.3127 79.8705C71.2377 79.933 71.1252 79.9424 71.0408 79.8924C70.9564 79.8424 70.9158 79.7361 70.9377 79.6424V77.5799C70.9431 77.4696 70.9802 77.3632 71.0445 77.2735C71.1088 77.1837 71.1975 77.1143 71.3002 77.0736L79.1627 72.3643C79.2377 72.3018 79.3502 72.2924 79.4346 72.3424C79.5189 72.3924 79.5596 72.4986 79.5377 72.5924V74.4111L79.5096 74.4143ZM85.0252 28.3143L55.1439 46.7705C51.4158 48.9768 48.6752 51.3893 48.6752 55.8768V92.683C48.6752 95.3705 49.7783 97.058 51.4314 97.6205C50.885 97.7225 50.331 97.7779 49.7752 97.7861C48.0202 97.7822 46.2985 97.3062 44.7908 96.408L13.2127 77.6674C11.6751 76.7448 10.4047 75.4372 9.52676 73.8737C8.64884 72.3102 8.19376 70.5448 8.20643 68.7518V31.258C8.19227 29.4625 8.64659 27.6944 9.52453 26.1281C10.4025 24.5619 11.6737 23.2516 13.2127 22.3268L44.7908 3.58301C47.8533 1.77051 51.6533 1.77051 54.7158 3.58301L86.2939 22.3268C88.8971 23.9018 90.6689 26.5455 91.1439 29.5143C90.1189 27.2861 87.7596 26.7018 85.0127 28.2799H85.0221L85.0252 28.3143Z" fill="white"/>
</g>
</g>
</svg>
