<svg xmlns="http://www.w3.org/2000/svg" fill="none" viewBox="0 0 23 23" id="Chartjs--Streamline-Svg-Logos" height="23" width="23">
  <desc>
    Chartjs Streamline Icon: https://streamlinehq.com
  </desc>
  <path fill="#36a2eb" d="M20.687373958333335 11.578271875c-3.1484125 0.061812500000000006 -2.492625 2.05490625 -4.711502083333334 2.5589416666666667 -2.254047916666667 0.5120614583333334 -2.6098770833333336 -5.505073958333333 -4.863373958333333 -5.505073958333333 -2.2537604166666667 0 -2.753028125 5.844994791666667 -5.575032291666667 9.857656250000002l-0.0805 0.11358645833333335 6.050341666666666 3.49255 9.180066666666667 -5.2995833333333335V11.578271875Z" stroke-width="0.2396"></path>
  <path fill="#ffce56" d="M20.68725416666667 11.396835416666667c-1.053975 -1.3526395833333336 -1.7688677083333333 -2.9077031250000003 -3.3069208333333333 -2.9077031250000003 -2.7217625 0 -2.0056000000000003 4.440102083333334 -5.013688541666667 4.440102083333334 -3.0083520833333335 0 -3.324626041666667 -4.77595 -6.732603125 -0.286421875 -1.0859354166666668 1.4304802083333334 -1.9600072916666667 3.0255302083333335 -2.6466291666666666 4.534857291666667L11.5071875 22.096076041666667l9.180066666666667 -5.2995833333333335V11.396835416666667Z" stroke-width="0.2396"></path>
  <path fill="#fe6184" d="M2.3268117708333333 13.236092708333333C3.3596770833333336 10.375803125 3.805445833333333 8.059271875 5.7772885416666675 8.059271875c3.008088541666667 0 3.724107291666667 8.450798958333333 6.302886458333334 7.591054166666667 2.5783479166666665 -0.8593135416666667 2.2917583333333336 -5.442854166666667 6.302862500000001 -5.442854166666667 0.76345625 0 1.5429645833333334 0.4677385416666667 2.3043125 1.2242947916666667v5.3646062500000005L11.507283333333334 22.095932291666667 2.3268117708333333 16.796372916666666V13.236092708333333Z" opacity=".8" stroke-width="0.2396"></path>
  <path fill="#e7e9ed" d="M11.500023958333335 22.760416666666668 1.7468068749999999 17.130352083333335V5.869791666666667L11.500023958333335 0.23958333333333334l9.753197916666668 5.630208333333334v11.260416666666668L11.500023958333335 22.760416666666668ZM2.8927052083333336 16.468790625l8.607318750000001 4.968814583333334 8.607318750000001 -4.968814583333334V6.531329166666667L11.500023958333335 1.5625409375000001 2.8927052083333336 6.531329166666667v9.937461458333333Z" stroke-width="0.2396"></path>
</svg>