<svg width="100" height="100" viewBox="0 0 100 100" fill="none" xmlns="http://www.w3.org/2000/svg">
<g id="cloudflare" clip-path="url(#clip0_790_4082)">
<g id="cloudflare_2">
<path id="Vector" d="M79.0458 46.2945L76.9712 45.4648C67.2208 67.4039 28.4321 54.066 26.0977 60.5926C25.7087 65.0012 47.2801 61.4309 62.7016 62.1781C67.4044 62.4059 69.7626 65.9559 67.7657 71.7422L71.6989 71.7543C76.236 57.6102 90.7157 64.8285 91.3208 60.1605C90.3266 57.0914 74.6801 60.1605 79.0458 46.2945Z" fill="white"/>
<path id="Vector_2" d="M68.8797 69.3234C69.502 67.2492 69.2945 65.1742 68.2574 63.9293C67.2199 62.6844 65.7676 61.8551 63.9004 61.6473L27.8008 61.232C27.5934 61.232 27.3859 61.025 27.1785 61.025C26.9711 60.8172 26.9711 60.6098 27.1785 60.4023C27.3859 59.9875 27.5934 59.7797 28.0082 59.7797L64.3152 59.3648C68.6723 59.1578 73.2367 55.6305 74.8961 51.4813L76.9711 46.0871C76.9711 45.8793 77.1785 45.6719 76.9711 45.4645C74.6887 34.8836 65.1453 27 53.9418 27C43.5684 27 34.6473 33.6387 31.5352 42.975C29.4605 41.5227 26.9711 40.6926 24.0664 40.9008C19.0871 41.3152 15.1453 45.4645 14.5227 50.4438C14.3152 51.6887 14.5227 52.9336 14.7305 54.1781C6.63906 54.3855 0 61.0246 0 69.3234C0 70.1531 0 70.7758 0.207422 71.6055C0.207422 72.0207 0.622266 72.2281 0.830078 72.2281H67.4273C67.8422 72.2281 68.2574 72.0211 68.2574 71.6055L68.8797 69.3234Z" fill="#F4811F"/>
<path id="Vector_3" d="M80.2906 46.0871H79.2531C79.0457 46.0871 78.8383 46.2941 78.6309 46.5019L77.1785 51.4812C76.5563 53.5555 76.7637 55.6308 77.8012 56.8754C78.8383 58.1203 80.2906 58.9496 82.1578 59.1578L89.8344 59.5726C90.0414 59.5726 90.2492 59.7797 90.4567 59.7797C90.6637 59.9875 90.6637 60.1949 90.4567 60.4023C90.2492 60.8176 90.0418 61.025 89.6266 61.025L81.743 61.4398C77.386 61.6469 72.8219 65.1742 71.1621 69.3234L70.7469 71.1906C70.5395 71.3984 70.7469 71.8133 71.1621 71.8133H98.5481C98.9629 71.8133 99.1703 71.6058 99.1703 71.191C99.5852 69.5308 100 67.6637 100 65.7965C100 55.0082 91.0789 46.0871 80.2906 46.0871Z" fill="#FAAD3F"/>
</g>
</g>
<defs>
<clipPath id="clip0_790_4082">
<rect width="100" height="100" fill="white"/>
</clipPath>
</defs>
</svg>
