<svg xmlns="http://www.w3.org/2000/svg" viewBox="0 0 24 24" fill="none" stroke="#6df312" stroke-linecap="round" stroke-linejoin="round" id="Clover--Streamline-Tabler" height="24" width="24">
  <desc>
    Clover Streamline Icon: https://streamlinehq.com
  </desc>
  <path d="M12 10 8.603 6.56a2.104 2.104 0 0 1 0 -2.95 2.04 2.04 0 0 1 2.912 0L12 4l0.485 -0.39a2.04 2.04 0 0 1 2.912 0 2.104 2.104 0 0 1 0 2.95L12 10z" stroke-width="2"></path>
  <path d="m12 14 -3.397 3.44a2.104 2.104 0 0 0 0 2.95 2.04 2.04 0 0 0 2.912 0L12 20l0.485 0.39a2.04 2.04 0 0 0 2.912 0 2.104 2.104 0 0 0 0 -2.95L12 14z" stroke-width="2"></path>
  <path d="m14 12 3.44 -3.397a2.104 2.104 0 0 1 2.95 0 2.04 2.04 0 0 1 0 2.912L20 12l0.39 0.485a2.04 2.04 0 0 1 0 2.912 2.104 2.104 0 0 1 -2.95 0L14 12z" stroke-width="2"></path>
  <path d="M10 12 6.56 8.603a2.104 2.104 0 0 0 -2.95 0 2.04 2.04 0 0 0 0 2.912L4 12l-0.39 0.485a2.04 2.04 0 0 0 0 2.912 2.104 2.104 0 0 0 2.95 0L10 12z" stroke-width="2"></path>
</svg>