<svg xmlns="http://www.w3.org/2000/svg" fill="none" viewBox="0 0 24 24" id="Java--Streamline-Svg-Logos" height="24" width="24">
  <desc>
    Java Streamline Icon: https://streamlinehq.com
  </desc>
  <path fill="#5382a1" d="M8.916025 18.42385s-0.898025 0.52225 0.6391 0.698975c1.8622 0.212425 2.81395 0.181975 4.8661 -0.206425 0 0 0.539525 0.3383 1.293025 0.6313 -4.600375 1.97165 -10.411575 -0.1142 -6.798225 -1.12385Z" stroke-width="0.25"></path>
  <path fill="#5382a1" d="M8.3539 15.851025s-1.007225 0.745575 0.53105 0.904675c1.98925 0.205225 3.560225 0.222 6.278575 -0.301425 0 0 0.376 0.381175 0.9672 0.589625 -5.562125 1.62645 -11.75735 0.12825 -7.776825 -1.192875Z" stroke-width="0.25"></path>
  <path fill="#e76f00" d="M13.092925 11.48655c1.133525 1.30505 -0.297825 2.47945 -0.297825 2.47945s2.878225 -1.48585 1.556375 -3.34645c-1.23455 -1.73515 -2.1813 -2.59725 2.944 -5.56975 0 0 -8.045025 2.009275 -4.20255 6.43675Z" stroke-width="0.25"></path>
  <path fill="#5382a1" d="M19.177275 20.326925s0.66455 0.547575 -0.7319 0.9712c-2.6554 0.804425 -11.052075 1.047325 -13.384625 0.03205 -0.8385 -0.364775 0.7339 -0.871 1.228525 -0.9772 0.51585 -0.111875 0.810625 -0.091025 0.810625 -0.091025 -0.932475 -0.6569 -6.0272375 1.28985 -2.587875 1.847375 9.37965 1.5211 17.0982 -0.68495 14.66525 -1.7824Z" stroke-width="0.25"></path>
  <path fill="#5382a1" d="M9.347925 13.18515s-4.271075 1.014475 -1.5125 1.38285c1.16475 0.15595 3.486675 0.120675 5.6495 -0.06055 1.76755 -0.1491 3.5424 -0.466125 3.5424 -0.466125s-0.62325 0.266925 -1.074175 0.574825c-4.3372 1.140675 -12.7159 0.610025 -10.303775 -0.556775 2.039925 -0.986075 3.69855 -0.874225 3.69855 -0.874225Z" stroke-width="0.25"></path>
  <path fill="#5382a1" d="M17.009625 17.46785c4.408975 -2.291075 2.37045 -4.492775 0.947575 -4.19615 -0.34875 0.072575 -0.50425 0.135475 -0.50425 0.135475s0.129475 -0.202825 0.37675 -0.2906c2.8149 -0.989625 4.979725 2.918775 -0.908675 4.466725 0 0 0.0682 -0.060925 0.0886 -0.11545Z" stroke-width="0.25"></path>
  <path fill="#e76f00" d="M14.351425 0.25s2.441775 2.442575 -2.3159 6.198575c-3.81515 3.012975 -0.869975 4.730875 -0.001575 6.69365 -2.226975 -2.009275 -3.861275 -3.778025 -2.76485 -5.42425C10.878375 5.3015 15.336625 4.1299 14.351425 0.25Z" stroke-width="0.25"></path>
  <path fill="#5382a1" d="M9.781125 23.676125c4.23205 0.2709 10.730875 -0.150325 10.884775 -2.1528 0 0 -0.29585 0.759125 -3.497575 1.362 -3.61215 0.67975 -8.067225 0.6004 -10.709575 0.16475 0 0 0.540925 0.447675 3.322375 0.62605Z" stroke-width="0.25"></path>
</svg>