<svg width="100" height="100" viewBox="0 0 100 100" fill="none" xmlns="http://www.w3.org/2000/svg">
<g id="jquery">
<g id="jquery_2">
<path id="Vector" d="M5.85743 68.0259C5.95326 68.2426 6.06159 68.4426 6.17826 68.6426C6.23243 68.7593 6.30743 68.8801 6.3741 68.9884C6.48243 69.2051 6.5991 69.4134 6.7116 69.6218L7.36577 70.7218C7.48661 70.9259 7.60328 71.1259 7.74078 71.3259C7.96995 71.7176 8.24078 72.1009 8.47829 72.4926C8.58662 72.6551 8.68662 72.8176 8.80746 72.9801C9.26579 73.6926 9.68247 74.2843 10.1283 74.8593C10.445 75.2885 10.7616 75.7093 11.1033 76.1302C11.2158 76.2885 11.3408 76.4468 11.4575 76.6052L12.3783 77.7218C12.4908 77.851 12.6033 78.001 12.7242 78.1343C13.1325 78.626 13.5658 79.101 13.9992 79.5844C13.9992 79.5927 14.0117 79.601 14.02 79.6135C14.5575 80.2885 15.1367 80.8885 15.77 81.4219L15.7867 81.4385C16.12 81.7802 16.4534 82.1177 16.8075 82.451L17.2284 82.8552C17.6909 83.2886 18.1534 83.7177 18.6409 84.1344C18.6492 84.1344 18.6534 84.1427 18.6617 84.1469L18.8992 84.3552C19.3242 84.7261 19.7534 85.0927 20.1909 85.4344L20.7118 85.8719C21.0659 86.1552 21.4326 86.4219 21.7951 86.7011L22.3618 87.1344C22.7493 87.4261 23.1618 87.7094 23.5576 87.9928C23.7034 88.0969 23.8493 88.2011 23.9993 88.2969L24.1201 88.3928L25.291 89.1594L25.791 89.4928C26.4035 89.8844 27.0118 90.2511 27.6202 90.6178C27.7952 90.7053 27.9702 90.8011 28.1327 90.9011C28.5827 91.1595 29.0493 91.422 29.5035 91.6595C29.7535 91.8011 30.0119 91.922 30.2702 92.0511C30.5827 92.2261 30.9077 92.397 31.241 92.572C31.3327 92.6011 31.4077 92.6303 31.4827 92.672L31.4994 92.6553C31.6369 92.7178 31.766 92.7845 31.8994 92.8511C32.3994 93.1011 32.9202 93.3386 33.4619 93.572C33.5619 93.6136 33.6702 93.6553 33.7786 93.7136C34.3786 93.9762 34.9786 94.2262 35.5994 94.4678C35.7411 94.5095 35.8911 94.5803 36.0369 94.6345C36.5994 94.847 37.1786 95.0637 37.7536 95.2678L37.9619 95.3428C38.5994 95.5595 39.2286 95.7678 39.8786 95.9637C40.0286 96.0053 40.1828 96.0595 40.3411 96.1012C41.0036 96.3012 41.6453 96.5387 42.3162 96.6637C85.1208 104.426 97.5584 71.0551 97.5584 71.0551C87.1083 84.5969 68.5623 88.1678 50.9996 84.1927C50.3496 84.0427 49.6996 83.8344 49.0412 83.6427C48.112 83.3797 47.1908 83.0893 46.2787 82.7719L46.6745 82.8927L46.4162 82.7927C45.8495 82.601 45.3037 82.3885 44.7495 82.176C44.6139 82.1185 44.4763 82.0657 44.337 82.0177L44.2912 82.0052C43.6787 81.7594 43.0828 81.5094 42.4912 81.2469C42.362 81.2052 42.2536 81.1469 42.1245 81.0969C41.4237 80.7915 40.7291 80.4719 40.0411 80.1385L40.6161 80.3927C40.4661 80.3264 40.3188 80.2541 40.1745 80.176C39.7828 79.9927 39.3911 79.7844 39.0078 79.5885C38.7158 79.4502 38.4282 79.3029 38.1453 79.1468L38.2286 79.1885C37.7578 78.9385 37.2869 78.6677 36.8119 78.4135C36.6703 78.3135 36.5078 78.2302 36.3453 78.1385C35.6392 77.7281 34.9418 77.303 34.2536 76.8635L34.5161 77.0218C34.3397 76.9129 34.1673 76.7975 33.9994 76.676L34.0244 76.6927C33.5766 76.4176 33.1374 76.1286 32.7077 75.826C32.566 75.7343 32.4369 75.6343 32.291 75.5343C31.8421 75.2279 31.4003 74.9111 30.966 74.5843L31.066 74.6551C30.891 74.5135 30.7035 74.3801 30.516 74.2426C30.1494 73.9551 29.7785 73.6801 29.4118 73.3801L28.9202 72.9885C28.3962 72.5715 27.8821 72.1423 27.3785 71.701L27.3743 71.6968L25.9285 70.3843L25.5118 69.9926C25.1701 69.6468 24.8201 69.3176 24.4701 68.9759L24.066 68.5593C23.6346 68.132 23.2136 67.6944 22.8034 67.2467L22.7784 67.2176L22.7076 67.1592C22.2664 66.6747 21.8317 66.1844 21.4034 65.6884C21.2909 65.5592 21.1868 65.4217 21.0701 65.2842L20.1242 64.1384C19.6979 63.6028 19.2811 63.0597 18.8742 62.5092L18.7076 62.2759C8.96579 49.0424 5.44075 30.7797 13.2367 15.7963L6.35326 24.5005C-2.501 37.1631 -1.40515 53.6299 5.36575 67.0759C5.51992 67.4051 5.69076 67.7134 5.85743 68.0259Z" fill="#1266A9"/>
<path id="Vector_2" d="M35.6786 49.784L35.6328 49.7174L35.5952 49.6674L35.6786 49.784Z" fill="black"/>
<path id="Vector_3" d="M40.337 55.2506L40.712 55.6256C41.187 56.0839 41.6745 56.5298 42.1703 56.9756L42.2328 57.0298C42.7328 57.4715 43.2953 57.934 43.8745 58.384L43.962 58.4506C44.1037 58.5465 44.2245 58.659 44.362 58.7548C44.9453 59.2048 45.5328 59.634 46.1453 60.0632L46.2079 60.1007C46.4662 60.2882 46.7412 60.459 47.0329 60.6423C47.1495 60.7173 47.2829 60.8173 47.4079 60.8923C47.8495 61.1757 48.2829 61.4382 48.7287 61.709C48.7995 61.7382 48.862 61.7757 48.9287 61.8048C49.3037 62.034 49.712 62.2548 50.1037 62.4548C50.2412 62.5382 50.3746 62.6007 50.5162 62.6798C50.7954 62.8173 51.0704 62.9632 51.3371 63.1048L51.4704 63.1632C52.0329 63.4382 52.6079 63.6965 53.1704 63.9507C53.3121 64.0049 53.4329 64.0507 53.5538 64.109C54.0163 64.309 54.4871 64.5007 54.9496 64.6757C55.1579 64.7465 55.3538 64.8299 55.5496 64.8924C55.9746 65.0507 56.4205 65.1965 56.8413 65.3424L57.4246 65.5299C58.033 65.7174 58.6496 65.9632 59.2955 66.0632C92.35 71.5049 100 46.1838 100 46.1838C93.1125 56.0464 79.7832 60.7465 65.5789 57.0756C64.8698 56.8968 64.1667 56.6953 63.4705 56.4715L63.708 56.5381C63.508 56.4839 63.333 56.4214 63.1413 56.3631C62.708 56.2131 62.2622 56.0673 61.8413 55.9131L61.2413 55.6881C60.7747 55.5006 60.2997 55.3256 59.8455 55.1256C59.7038 55.0631 59.5746 55.0214 59.4663 54.9589C58.883 54.6964 58.2955 54.4381 57.7246 54.1631L56.8663 53.7173L56.3705 53.4673C55.9871 53.2673 55.6329 53.0589 55.2663 52.8464C55.1728 52.8025 55.0823 52.7524 54.9954 52.6964L55.0079 52.7006C54.5663 52.4256 54.1079 52.1589 53.6829 51.8797C53.5413 51.8006 53.4121 51.7047 53.2788 51.6214L52.4121 51.0589C51.8121 50.6422 51.2246 50.1964 50.6287 49.7631C50.4954 49.6422 50.3662 49.5422 50.2371 49.4339C43.9912 44.5463 39.0661 37.8671 36.7286 30.3045C34.2661 22.4419 34.8077 13.6252 39.0619 6.47095L33.8327 13.8377C27.4118 23.0086 27.7743 35.2671 32.7744 44.9672C33.6869 46.7589 34.6119 48.2714 35.6327 49.713C36.5828 51.0714 37.6328 52.6631 38.8994 53.7548C39.3495 54.2673 39.8328 54.7548 40.337 55.2506Z" fill="#1266A9"/>
<path id="Vector_4" d="M56.9413 5.86254C53.1537 11.3918 52.7912 18.2585 55.3996 24.3544C58.1704 30.8294 63.833 35.9128 70.4331 38.3212C70.7039 38.4254 70.9664 38.5129 71.2456 38.6129L71.6123 38.7254C71.9956 38.8462 72.3831 38.9879 72.7789 39.0754C91.0333 42.5796 95.975 29.7503 97.3042 27.8628C92.9583 34.0711 85.6708 35.5628 76.729 33.4003C75.9515 33.2107 75.1862 32.9742 74.4373 32.692L74.5748 32.7378C73.6429 32.4153 72.7303 32.0397 71.8414 31.6128L71.9998 31.6836C70.2914 30.8503 68.8247 29.9503 67.4622 28.9169C59.4705 22.8752 54.5287 11.3709 59.7455 2L56.9413 5.86254Z" fill="#1266A9"/>
</g>
</g>
</svg>
