<svg role="img" viewBox="0 0 24 24" xmlns="http://www.w3.org/2000/svg" id="Mongoose--Streamline-Simple-Icons" height="24" width="24">
  <desc>
    Mongoose Streamline Icon: https://streamlinehq.com
  </desc>
  <title>Mongoose</title>
  <path d="M14.014 7.37a9.162 9.162 0 0 0 -0.808 0.025c-0.218 0.017 -0.434 0.072 -0.65 0.11 0.229 0.118 0.456 0.213 0.68 0.315 0.225 0.103 0.436 0.232 0.629 0.387 -0.253 -0.097 -0.499 -0.208 -0.752 -0.298a8.046 8.046 0 0 0 -1.624 -0.421c-0.273 -0.037 -0.546 -0.073 -0.819 0.005 -0.276 0.078 -0.354 0.18 -0.38 0.458 -0.04 0.46 0.098 0.887 0.281 1.298a4.432 4.432 0 0 0 1.185 1.573c0.391 0.335 0.825 0.598 1.305 0.787 0.136 0.053 0.274 0.103 0.411 0.155l-0.009 0.032c-0.263 -0.072 -0.532 -0.126 -0.787 -0.22a4.14 4.14 0 0 1 -1.222 -0.73 4.16 4.16 0 0 1 -1.007 -1.22 3.43 3.43 0 0 1 -0.43 -1.609l-0.012 0.005C4.891 7.488 0.402 11.595 0.035 11.94l-0.034 0.014c-0.002 0.005 0 0.01 0.003 0.016L0 11.974l0.005 -0.002c0.004 0.008 0.01 0.016 0.013 0.024 0.087 -0.019 0.173 -0.042 0.26 -0.054l0.069 -0.01c0.324 -0.115 0.655 -0.205 0.997 -0.253 0.484 -0.069 0.985 -0.159 1.48 -0.156 0.468 0.002 0.943 0.074 1.402 0.153 0.129 0.022 0.255 0.052 0.38 0.087 0.335 0.075 0.65 0.21 0.933 0.391l0.06 0.03c0.403 0.19 0.758 0.47 1.038 0.811 0.052 0.057 0.141 0.116 0.187 0.178 0.096 0.114 0.142 0.236 0.303 0.363v-1.737h2.01l0.939 1.733 0.942 -1.733h2.07v3.357l0.343 -0.226s0.375 -1 2.116 -1.14l1.996 -0.064c-0.308 -0.637 -0.307 -0.637 -0.159 -0.83 0.147 -0.19 1.28 -0.314 1.48 -0.433l2.912 -0.588c0.007 -0.022 0.015 0.012 0.03 0.007 0.072 -0.022 0.147 -0.037 0.25 -0.061l0.66 -0.16c0.042 -0.025 0.093 -0.034 0.14 -0.05 0.308 -0.107 0.577 -0.245 0.726 -0.573 0.145 -0.319 0.339 -0.616 0.41 -0.967 0.022 -0.111 0.003 -0.208 -0.078 -0.288 -0.097 -0.096 -0.222 -0.138 -0.35 -0.171 -0.421 -0.173 -0.84 -0.35 -1.264 -0.513 -0.261 -0.101 -0.529 -0.185 -0.795 -0.27a30.574 30.574 0 0 0 -0.794 -0.243c-0.244 -0.072 -0.49 -0.138 -0.736 -0.205 -0.24 -0.066 -0.48 -0.133 -0.72 -0.192 -0.282 -0.07 -0.565 -0.13 -0.847 -0.195 -0.215 -0.05 -0.428 -0.102 -0.644 -0.146 -0.234 -0.047 -0.47 -0.089 -0.706 -0.13 -0.302 -0.053 -0.602 -0.112 -0.905 -0.153 -0.366 -0.05 -0.734 -0.082 -1.101 -0.125 -0.345 -0.04 -0.691 -0.065 -1.038 -0.07zm-3.303 0.767a0.154 0.154 0 0 1 0.056 0.007c0.42 0.13 0.83 0.277 1.216 0.491 0.365 0.203 0.695 0.45 0.979 0.756 0.012 0.013 0.02 0.028 0.036 0.05l-0.645 -0.293 -0.021 0.026 0.37 0.551 -0.022 0.022a1.986 1.986 0 0 0 -0.665 -0.322l-0.02 0.02 0.633 0.74 -0.416 -0.136 -0.017 0.02c0.163 0.27 0.376 0.505 0.58 0.775 -0.354 -0.2 -0.665 -0.42 -0.956 -0.669a4.488 4.488 0 0 1 -1.01 -1.185c-0.107 -0.19 -0.201 -0.385 -0.222 -0.606a0.468 0.468 0 0 1 0.011 -0.15 0.123 0.123 0 0 1 0.113 -0.097zm5.424 0.668c0.154 0.002 0.311 -0.006 0.464 0.015 0.278 0.037 0.555 0.092 0.832 0.14 0.158 0.027 0.317 0.052 0.474 0.086 0.297 0.064 0.594 0.133 0.89 0.2 0.196 0.046 0.392 0.092 0.587 0.14l-0.329 0.161c-0.365 0.027 -0.731 0.055 -1.097 0.057a3.268 3.268 0 0 1 -0.675 -0.074c-0.28 -0.058 -0.514 -0.196 -0.652 -0.466 -0.02 -0.04 -0.09 -0.063 -0.14 -0.078 -0.18 -0.054 -0.362 -0.1 -0.544 -0.168 0.063 -0.005 0.126 -0.014 0.19 -0.013zm3.223 2.635 0.005 0.02c-0.08 0.022 -0.16 0.042 -0.239 0.067 -0.455 0.14 -0.916 0.266 -1.363 0.428 -0.28 0.101 -0.544 0.25 -0.81 0.388 -0.233 0.119 -0.315 0.322 -0.287 0.575 0.019 0.162 0.04 0.324 0.055 0.488a1.786 1.786 0 0 1 -0.288 -0.701c-0.035 -0.169 0.058 -0.273 0.18 -0.365 0.238 -0.178 0.496 -0.318 0.777 -0.41 0.35 -0.117 0.702 -0.233 1.059 -0.325 0.251 -0.065 0.513 -0.09 0.77 -0.133 0.048 -0.008 0.094 -0.021 0.141 -0.032zM9.141 13.955v2.676h1.869l0.064 -0.066v-2.61l-0.97 1.495z" fill="#bb200f" stroke-width="1"></path>
</svg>