<svg width="100" height="100" viewBox="0 0 100 100" fill="none" xmlns="http://www.w3.org/2000/svg">
<g id="nestjs">
<g id="nestjs_2">
<path id="Vector" fill-rule="evenodd" clip-rule="evenodd" d="M58.8812 -0.000976562C58.1581 -0.000976562 57.4866 0.15398 56.8668 0.360576C58.1839 1.23863 58.907 2.40077 59.2685 3.71785C59.2944 3.89862 59.346 4.02775 59.3719 4.20852C59.3978 4.36347 59.4235 4.51843 59.4235 4.67338C59.5268 6.94599 58.8295 7.23006 58.3388 8.57297C57.5899 10.3033 57.7965 12.1627 58.7004 13.6605C58.7779 13.8413 58.8812 14.0479 59.0103 14.2287C58.0289 7.69492 63.478 6.71356 64.4852 4.67338C64.5627 2.89144 63.0907 1.70348 61.9285 0.877078C60.818 0.205626 59.8109 -0.000976562 58.8812 -0.000976562ZM67.0936 1.47106C66.9902 2.06504 67.0677 1.91008 67.0419 2.21999C67.0161 2.42659 67.0161 2.68484 66.9903 2.89144C66.9387 3.09804 66.887 3.30464 66.8095 3.51125C66.7579 3.71785 66.6804 3.92445 66.603 4.13105C66.4996 4.33766 66.4222 4.51842 66.3189 4.72503C66.2414 4.82837 66.1898 4.93162 66.1123 5.03493C66.0607 5.11241 66.0089 5.18988 65.9573 5.26736C65.8282 5.44814 65.6991 5.62891 65.5699 5.78386C65.415 5.93881 65.2859 6.11958 65.1051 6.24872V6.27457C64.9501 6.4037 64.7952 6.55865 64.6144 6.68777C64.0721 7.10097 63.4523 7.41088 62.8841 7.79826C62.7034 7.92738 62.5226 8.03069 62.3676 8.18564C62.1869 8.31476 62.0319 8.44388 61.877 8.59883C61.6962 8.75379 61.567 8.90874 61.4121 9.08952C61.283 9.24447 61.128 9.42524 61.0247 9.60602C60.8956 9.78679 60.7665 9.96757 60.6632 10.1483C60.5598 10.3549 60.4824 10.5357 60.3791 10.7423C60.3016 10.9489 60.2241 11.1297 60.1725 11.3363C60.095 11.5687 60.0434 11.7753 59.9917 11.9819C59.9659 12.0853 59.9659 12.2144 59.9401 12.3177C59.9142 12.421 59.9142 12.5243 59.8885 12.6276C59.8885 12.8342 59.8626 13.0666 59.8626 13.2732C59.8626 13.4281 59.8626 13.5831 59.8885 13.738C59.8885 13.9446 59.9144 14.1512 59.966 14.3837C59.9918 14.5903 60.0434 14.7969 60.0951 15.0035C60.1726 15.2101 60.2242 15.4167 60.3017 15.6233C60.3533 15.7524 60.4308 15.8815 60.4825 15.9848L54.5427 13.6864C53.5355 13.4023 52.5542 13.1441 51.547 12.9116C51.0046 12.7825 50.4623 12.6534 49.92 12.5243C48.3705 12.2144 46.7952 11.9819 45.2198 11.827C45.1682 11.827 45.1423 11.8011 45.0907 11.8011C43.5412 11.6462 42.0175 11.5687 40.468 11.5687C39.3317 11.5687 38.1954 11.6203 37.0849 11.6978C35.5095 11.8012 33.9342 12.0077 32.3589 12.266C31.9715 12.3176 31.5841 12.3951 31.1967 12.4726C30.3962 12.6275 29.6214 12.8083 28.8725 12.9891C28.4851 13.0924 28.0977 13.1957 27.7103 13.299C27.323 13.4539 26.9614 13.6347 26.5999 13.7897C26.3158 13.9188 26.0317 14.0479 25.7476 14.177C25.696 14.2029 25.6443 14.2029 25.6185 14.2287C25.3603 14.3578 25.1278 14.4611 24.8954 14.5902C24.8179 14.6161 24.7663 14.6418 24.7146 14.6677C24.4306 14.7968 24.1465 14.9518 23.9141 15.0809C23.7333 15.1584 23.5525 15.2617 23.3976 15.3391C23.3201 15.3907 23.2168 15.4425 23.1651 15.4683C22.9327 15.5974 22.7003 15.7265 22.4937 15.8556C22.2612 15.9848 22.0546 16.1139 21.8739 16.243C21.6931 16.3721 21.5123 16.4754 21.3574 16.6046C21.3315 16.6304 21.3057 16.6304 21.2799 16.6562C21.1249 16.7595 20.9442 16.8886 20.7892 17.0177C20.7892 17.0177 20.7633 17.0436 20.7376 17.0693C20.6085 17.1727 20.4793 17.2759 20.3502 17.3792C20.2986 17.4051 20.2469 17.4567 20.1953 17.4826C20.0661 17.5859 19.937 17.715 19.8079 17.8183C19.782 17.8699 19.7304 17.8958 19.7046 17.9216C19.5496 18.0766 19.3947 18.2057 19.2397 18.3607C19.2138 18.3607 19.2138 18.3865 19.1881 18.4123C19.0331 18.5414 18.8782 18.6964 18.7232 18.8513C18.6974 18.8772 18.6974 18.9029 18.6716 18.9029C18.5425 19.032 18.4134 19.1612 18.2842 19.3161C18.2326 19.3677 18.1551 19.4195 18.1035 19.4711C17.9744 19.626 17.8194 19.781 17.6644 19.9359C17.6386 19.9875 17.587 20.0134 17.5611 20.0651C17.3545 20.2717 17.1737 20.4783 16.9671 20.6849C16.9413 20.7107 16.9155 20.7365 16.8897 20.7623C16.4764 21.2014 16.0374 21.6404 15.5726 22.0278C15.1077 22.441 14.617 22.8283 14.1264 23.1641C13.6099 23.5256 13.1192 23.8355 12.5768 24.1454C12.0603 24.4295 11.518 24.6878 10.9499 24.9202C10.4075 25.1526 9.83938 25.3592 9.27123 25.54C8.18657 25.7724 7.07609 26.2114 6.12056 26.2889C5.91396 26.2889 5.68153 26.3405 5.47493 26.3664C5.2425 26.418 5.0359 26.4697 4.82931 26.5213C4.62271 26.5988 4.4161 26.6763 4.2095 26.7538C4.0029 26.8312 3.7963 26.9345 3.5897 27.0378C3.40892 27.167 3.20232 27.2703 3.02154 27.3994C2.84077 27.5285 2.65999 27.6835 2.50504 27.8384C2.32427 27.9676 2.14349 28.1483 1.98853 28.3033C1.83358 28.4841 1.67863 28.639 1.54951 28.8198C1.42038 29.0264 1.26543 29.2072 1.16213 29.4138C1.033 29.5945 0.903882 29.8011 0.800576 30.0077C0.697234 30.2402 0.593977 30.4468 0.516501 30.6792C0.439025 30.8858 0.361549 31.1182 0.284073 31.3506C0.232463 31.5572 0.180732 31.7638 0.154951 31.9704C0.154951 31.9963 0.129086 32.0221 0.129086 32.0479C0.0774755 32.2804 0.0774754 32.5903 0.0516095 32.7452C0.0257446 32.926 0 33.0809 0 33.2617C0 33.3651 8.03957e-08 33.4941 0.025865 33.5974C0.0517299 33.7782 0.0774744 33.9332 0.129207 34.0881C0.180817 34.2431 0.232549 34.398 0.309976 34.553V34.5788C0.387452 34.7338 0.490757 34.8887 0.594051 35.0437C0.697393 35.1986 0.800662 35.3536 0.929784 35.5085C1.05891 35.6377 1.21386 35.7926 1.36881 35.9217C1.52376 36.0767 1.67872 36.2058 1.85948 36.3349C2.47929 36.8773 2.63424 37.0581 3.43482 37.4712C3.56394 37.5487 3.69308 37.6004 3.84803 37.6779C3.8739 37.6779 3.89964 37.7037 3.92551 37.7037C3.92551 37.7553 3.92551 37.7812 3.95138 37.8329C3.97724 38.0395 4.02885 38.246 4.0805 38.4526C4.13211 38.6851 4.20963 38.8917 4.28711 39.0725C4.36459 39.2274 4.41623 39.3824 4.49371 39.5373C4.51957 39.5889 4.54532 39.6407 4.57119 39.6664C4.67453 39.873 4.77778 40.0538 4.88108 40.2346C5.01021 40.4154 5.13933 40.5961 5.26846 40.7769C5.39758 40.9319 5.55253 41.1126 5.70748 41.2676C5.86244 41.4225 6.01739 41.5517 6.19817 41.7066C6.19817 41.7066 6.22404 41.7325 6.24978 41.7325C6.40473 41.8616 6.55968 41.9908 6.71464 42.0941C6.89541 42.2232 7.07619 42.3265 7.28279 42.4298C7.46357 42.5331 7.67017 42.6364 7.87676 42.7139C8.03172 42.7913 8.21248 42.843 8.39327 42.8946C8.41914 42.9205 8.44488 42.9205 8.49661 42.9463C8.59995 42.9722 8.72902 42.9979 8.83233 43.0237C8.75485 44.4183 8.72899 45.7354 8.93567 46.2002C9.16809 46.7167 10.3044 45.1414 11.4407 43.3336C11.2858 45.1156 11.1825 47.2074 11.4407 47.8272C11.7248 48.4728 13.2743 46.4585 14.6172 44.2375C32.9272 40.0022 49.6361 52.6565 51.3922 70.5275C51.0565 67.7384 47.6217 66.1889 46.0464 66.5763C45.2717 68.4873 43.9546 70.9407 41.8369 72.4644C42.0177 70.7599 41.9403 69.0038 41.5787 67.2994C41.0105 69.6753 39.9 71.8963 38.3763 73.8073C35.923 73.9881 33.4696 72.8001 32.1783 71.0182C32.075 70.9407 32.0492 70.7858 31.9717 70.6825C31.8942 70.5017 31.8167 70.3209 31.7651 70.1401C31.6876 69.9594 31.636 69.7786 31.6101 69.5978C31.5843 69.417 31.5843 69.2363 31.5843 69.0297C31.5843 68.9005 31.5843 68.7714 31.5843 68.6423C31.6101 68.4615 31.6618 68.2807 31.7134 68.0999C31.765 67.9192 31.8167 67.7384 31.8942 67.5576C31.9975 67.3769 32.075 67.1961 32.2041 67.0153C32.6431 65.7757 32.6431 64.7685 31.8425 64.1745C31.6876 64.0712 31.5326 63.9937 31.3518 63.9163C31.2485 63.8904 31.1194 63.8388 31.0161 63.8129C30.9387 63.7871 30.887 63.7613 30.8095 63.7355C30.6287 63.6838 30.448 63.6321 30.2672 63.6063C30.0864 63.5547 29.9056 63.5289 29.7249 63.5289C29.5441 63.503 29.3375 63.4772 29.1567 63.4772C29.0276 63.4772 28.8985 63.5031 28.7693 63.5031C28.5627 63.5031 28.382 63.529 28.2012 63.5806C28.0204 63.6065 27.8396 63.6322 27.6589 63.6839C27.4781 63.7355 27.2973 63.7873 27.1165 63.8647C26.9358 63.9422 26.7808 64.0197 26.6 64.0971C26.4451 64.1746 26.2901 64.2779 26.1093 64.3554C20.0921 68.2808 23.6818 77.4745 27.788 80.1345C26.2385 80.4186 24.6631 80.7544 24.2241 81.0901C24.1982 81.1159 24.1725 81.1417 24.1725 81.1417C25.283 81.8131 26.4451 82.3813 27.6589 82.872C29.3117 83.4143 31.0678 83.905 31.8426 84.1116V84.1374C33.9861 84.5765 36.1554 84.7314 38.3505 84.6023C49.7911 83.8017 59.1656 75.0986 60.8701 63.6323C60.9217 63.8647 60.9734 64.0713 61.025 64.3037C61.1025 64.7686 61.2058 65.2592 61.2574 65.7499V65.7758C61.309 66.0082 61.3349 66.2407 61.3608 66.4473V66.5506C61.3867 66.783 61.4124 67.0155 61.4124 67.2221C61.4382 67.5061 61.464 67.7902 61.464 68.0743V68.4875C61.464 68.6166 61.4898 68.7716 61.4898 68.9007C61.4898 69.0557 61.464 69.2106 61.464 69.3656V69.7271C61.464 69.9079 61.4381 70.0628 61.4381 70.2436C61.4381 70.3469 61.4381 70.4502 61.4122 70.5793C61.4122 70.7601 61.3864 70.9409 61.3864 71.1475C61.3605 71.225 61.3605 71.3024 61.3605 71.3799C61.3346 71.5865 61.3089 71.7673 61.283 71.9739C61.283 72.0514 61.283 72.1288 61.2571 72.2063C61.2312 72.4646 61.1797 72.697 61.1538 72.9553V72.9812V73.007C61.1022 73.2394 61.0505 73.4977 60.9988 73.7301V73.8076C60.9472 74.04 60.8955 74.2724 60.8439 74.5049C60.8439 74.5308 60.8181 74.5823 60.8181 74.6082C60.7664 74.8406 60.7147 75.0731 60.6373 75.3055V75.383C60.5598 75.6412 60.4823 75.8736 60.4307 76.1061C60.4048 76.1319 60.4048 76.1577 60.4048 76.1577C60.3273 76.4159 60.2499 76.6742 60.1724 76.9324C60.0691 77.1907 59.9916 77.4231 59.8883 77.6814C59.785 77.9396 59.7075 78.1979 59.6042 78.4303C59.5009 78.6885 59.3976 78.921 59.2943 79.1792H59.2684C59.1651 79.4116 59.0618 79.6699 58.9327 79.9023C58.9068 79.9798 58.8811 80.0314 58.8552 80.0831C58.8294 80.109 58.8294 80.1347 58.8036 80.1606C57.125 83.5437 54.6458 86.5135 51.5468 88.8378C51.3402 88.9669 51.1335 89.1219 50.927 89.2768C50.8753 89.3285 50.7978 89.3543 50.7462 89.406C50.5654 89.5351 50.3846 89.6642 50.178 89.7934L50.2555 89.9483H50.2814C50.6429 89.8967 51.0045 89.845 51.366 89.7934H51.3919C52.0633 89.69 52.7348 89.5609 53.4062 89.4318C53.587 89.4059 53.7936 89.3543 53.9744 89.3027C54.1035 89.2768 54.2068 89.2511 54.3359 89.2252C54.5167 89.1993 54.6975 89.1477 54.8783 89.1218C55.0332 89.0702 55.1882 89.0444 55.3431 88.9927C57.9256 88.3729 60.4307 87.5207 62.8324 86.5135C58.7262 92.1176 53.2255 96.637 46.795 99.6068C49.7649 99.4003 52.7348 98.9096 55.6014 98.0832C66.0089 95.01 74.7636 88.0114 80.0061 78.5852C78.9473 84.5508 76.5714 90.2323 73.0592 95.1908C75.5642 93.5379 77.8626 91.6269 79.9545 89.4576C85.7393 83.4145 89.5356 75.7444 90.8269 67.5062C91.7049 71.5866 91.9632 75.7961 91.5758 79.9539C110.222 53.948 93.1253 26.9865 85.9717 19.8846C85.9459 19.833 85.9201 19.8071 85.9201 19.7555C85.8942 19.7813 85.8942 19.7813 85.8942 19.8071C85.8942 19.7812 85.8942 19.7812 85.8684 19.7555C85.8684 20.0654 85.8425 20.3753 85.8168 20.6852C85.7393 21.2792 85.6618 21.8473 85.5585 22.4155C85.4294 22.9836 85.2744 23.5518 85.1195 24.1199C84.9387 24.6623 84.7321 25.2304 84.4997 25.7727C84.2673 26.2892 84.009 26.8316 83.7249 27.3481C83.4409 27.8388 83.131 28.3553 82.7952 28.8201C82.4595 29.3108 82.098 29.7756 81.7364 30.2147C81.349 30.6795 80.9358 31.0927 80.5226 31.5059C80.2644 31.7384 80.0319 31.945 79.7737 32.1516C79.5671 32.3323 79.3863 32.4873 79.1797 32.6681C78.7149 33.0296 78.25 33.3653 77.7335 33.6752C77.2428 33.9851 76.7263 34.295 76.2098 34.5533C75.6675 34.8116 75.1252 35.044 74.5828 35.2764C74.0405 35.483 73.4724 35.6638 72.9042 35.8187C72.336 35.9737 71.7421 36.1028 71.1739 36.2061C70.5799 36.3094 69.986 36.3611 69.4178 36.4127C69.0046 36.4386 68.5914 36.4643 68.1782 36.4643C67.5842 36.4643 66.9902 36.4127 66.4221 36.361C65.8281 36.3094 65.2341 36.2318 64.666 36.1027C64.072 35.9994 63.5038 35.8445 62.9357 35.6637H62.9098C63.478 35.6121 64.0461 35.5603 64.6143 35.4571C65.2083 35.3538 65.7764 35.2247 66.3446 35.0697C66.9127 34.9148 67.4809 34.734 68.0232 34.5274C68.5914 34.3208 69.1337 34.0625 69.6502 33.8043C70.1925 33.546 70.6832 33.262 71.1997 32.9521C71.6904 32.6163 72.1811 32.2806 72.6459 31.919C73.1108 31.5575 73.5498 31.1701 73.963 30.7569C74.402 30.3695 74.7894 29.9305 75.1768 29.4915C75.5641 29.0266 75.9257 28.5618 76.2614 28.0969C76.313 28.0194 76.3648 27.9162 76.4164 27.8387C76.6746 27.4255 76.9329 27.0123 77.1653 26.5991C77.4494 26.0826 77.7076 25.5661 77.9401 25.0237C78.1725 24.4814 78.3791 23.9391 78.5599 23.3709C78.7406 22.8286 78.8698 22.2604 78.9989 21.6923C79.1023 21.0983 79.2055 20.5302 79.2572 19.962C79.3088 19.368 79.3605 18.774 79.3605 18.2059C79.3605 17.7927 79.3346 17.3795 79.3089 16.9663C79.2573 16.3723 79.1798 15.8042 79.1023 15.236C78.9989 14.642 78.8699 14.0739 78.7149 13.5057C78.5341 12.9634 78.3534 12.3952 78.1468 11.8529C77.9401 11.3106 77.6819 10.7683 77.4236 10.2517C77.1396 9.73525 76.8555 9.21874 76.5456 8.72807C76.2099 8.2374 75.8741 7.77254 75.5126 7.30768C75.1252 6.86866 74.7378 6.42963 74.3246 5.9906C74.118 5.78401 73.8856 5.55158 73.6532 5.34498C72.491 4.44109 71.2773 3.58886 70.0635 2.81411C69.8827 2.71077 69.7278 2.63333 69.547 2.55585C68.6947 2.01353 67.8941 1.7293 67.0936 1.47106Z" fill="#E0234E"/>
</g>
</g>
</svg>
