<svg width="100" height="100" viewBox="0 0 100 100" fill="none" xmlns="http://www.w3.org/2000/svg">
<g id="openai">
<g id="openai_2">
<path id="Vector" d="M93.0601 40.9365C94.3101 37.499 94.6226 34.0615 94.3101 30.624C93.9976 27.1865 92.7476 23.749 91.1851 20.624C88.3726 15.9365 84.3101 12.1865 79.6226 9.99902C74.6226 7.81152 69.3101 7.18652 63.9976 8.43652C61.4976 5.93652 58.6851 3.74902 55.5601 2.18652C52.4351 0.624023 48.6851 -0.000976562 45.2476 -0.000976562C39.9351 -0.000976562 34.6226 1.56152 30.2476 4.68652C25.8726 7.81152 22.7476 12.1865 21.1851 17.1865C17.4351 18.124 14.3101 19.6865 11.1851 21.5615C8.37257 23.749 6.18507 26.5615 4.31007 29.374C1.49757 34.0615 0.560072 39.374 1.18507 44.6865C1.81007 49.999 3.99757 54.999 7.43507 59.0615C6.18507 62.499 5.87257 65.9365 6.18507 69.374C6.49757 72.8115 7.74757 76.249 9.31007 79.374C12.1226 84.0615 16.1851 87.8115 20.8726 89.999C25.8726 92.1865 31.1851 92.8115 36.4976 91.5615C38.9976 94.0615 41.8101 96.249 44.9351 97.8115C48.0601 99.374 51.8101 99.999 55.2476 99.999C60.5601 99.999 65.8726 98.4365 70.2476 95.3115C74.6226 92.1865 77.7476 87.8115 79.3101 82.8115C82.7476 82.1865 86.1851 80.624 88.9976 78.4365C91.8101 76.249 94.3101 73.749 95.8726 70.624C98.6851 65.9365 99.6226 60.624 98.9976 55.3115C98.3726 49.999 96.4976 44.999 93.0601 40.9365ZM55.5601 93.4365C50.5601 93.4365 46.8101 91.874 43.3726 89.0615C43.3726 89.0615 43.6851 88.749 43.9976 88.749L63.9976 77.1865C64.6226 76.874 64.9351 76.5615 65.2476 75.9365C65.5601 75.3115 65.5601 74.999 65.5601 74.374V46.249L73.9976 51.249V74.374C74.3101 85.3115 65.5601 93.4365 55.5601 93.4365ZM15.2476 76.249C13.0601 72.499 12.1226 68.124 13.0601 63.749C13.0601 63.749 13.3726 64.0615 13.6851 64.0615L33.6851 75.624C34.3101 75.9365 34.6226 75.9365 35.2476 75.9365C35.8726 75.9365 36.4976 75.9365 36.8101 75.624L61.1851 61.5615V71.249L40.8726 83.124C36.4976 85.624 31.4976 86.249 26.8101 84.999C21.8101 83.749 17.7476 80.624 15.2476 76.249ZM9.93507 32.8115C12.1226 29.0615 15.5601 26.249 19.6226 24.6865V25.3115V48.4365C19.6226 49.0615 19.6226 49.6865 19.9351 49.999C20.2476 50.624 20.5601 50.9365 21.1851 51.249L45.5601 65.3115L37.1226 70.3115L17.1226 58.749C12.7476 56.249 9.62257 52.1865 8.37257 47.499C7.12257 42.8115 7.43507 37.1865 9.93507 32.8115ZM78.9976 48.749L54.6226 34.6865L63.0601 29.6865L83.0601 41.249C86.1851 43.124 88.6851 45.624 90.2476 48.749C91.8101 51.874 92.7476 55.3115 92.4351 59.0615C92.1226 62.499 90.8726 65.9365 88.6851 68.749C86.4976 71.5615 83.6851 73.749 80.2476 74.999V51.249C80.2476 50.624 80.2476 49.999 79.9351 49.6865C79.9351 49.6865 79.6226 49.0615 78.9976 48.749ZM87.4351 36.249C87.4351 36.249 87.1226 35.9365 86.8101 35.9365L66.8101 24.374C66.1851 24.0615 65.8726 24.0615 65.2476 24.0615C64.6226 24.0615 63.9976 24.0615 63.6851 24.374L39.3101 38.4365V28.749L59.6226 16.874C62.7476 14.999 66.1851 14.374 69.9351 14.374C73.3726 14.374 76.8101 15.624 79.9351 17.8115C82.7476 19.999 85.2476 22.8115 86.4976 25.9365C87.7476 29.0615 88.0601 32.8115 87.4351 36.249ZM34.9351 53.749L26.4976 48.749V25.3115C26.4976 21.874 27.4351 18.124 29.3101 15.3115C31.1851 12.1865 33.9976 9.99902 37.1226 8.43652C40.2476 6.87402 43.9976 6.24902 47.4351 6.87402C50.8726 7.18652 54.3101 8.74902 57.1226 10.9365C57.1226 10.9365 56.8101 11.249 56.4976 11.249L36.4976 22.8115C35.8726 23.124 35.5601 23.4365 35.2476 24.0615C34.9351 24.6865 34.9351 24.999 34.9351 25.624V53.749ZM39.3101 43.749L50.2476 37.499L61.1851 43.749V56.249L50.2476 62.499L39.3101 56.249V43.749Z" fill="white"/>
</g>
</g>
</svg>
