<svg xmlns="http://www.w3.org/2000/svg" fill="none" viewBox="0 0 24 24" id="Pnpm--Streamline-Svg-Logos" height="24" width="24">
  <desc>
    Pnpm Streamline Icon: https://streamlinehq.com
  </desc>
  <path fill="#f9ad00" d="M23.750075 9.3656v5.268875H18.4812V9.3656h5.268875Zm0 -5.795775v5.268875H18.4812V3.569825h5.268875Zm-5.795775 0v5.268875H12.685425V3.569825h5.268875Zm-5.795775 0v5.268875H6.88965V3.569825h5.268875Z" stroke-width="0.25"></path>
  <path fill="#4e4e4e" d="M17.954225 15.161375V20.43025H12.68535V15.161375h5.268875Zm5.795775 0V20.43025H18.481125V15.161375H23.75Zm-11.59155 0V20.43025H6.889575V15.161375h5.268875Zm5.795775 -5.795775v5.268875H12.68535V9.3656h5.268875ZM1.2369675 10.90305c0.177035 0 0.34153 0.022875 0.4934825 0.0686 0.151955 0.04575 0.2825175 0.115825 0.39169 0.21025 0.10917 0.0944 0.1947375 0.213175 0.2567 0.356275 0.0619625 0.1431 0.0929425 0.3135 0.0929425 0.511175 0 0.18885 -0.026555 0.354075 -0.079665 0.4957 -0.05311 0.141625 -0.12835 0.2604 -0.22572 0.3563 -0.0973675 0.095875 -0.2146525 0.167425 -0.351855 0.21465 -0.1372025 0.0472 -0.289895 0.0708 -0.4580775 0.0708 -0.126875 0 -0.2448975 -0.019175 -0.3540675 -0.057525v0.7347l-0.007125 0.00205c-0.02975 0.008275 -0.074585 0.017175 -0.1345025 0.0267 -0.0649125 0.010325 -0.1313025 0.0155 -0.199165 0.0155 -0.0649125 0 -0.1231875 -0.004425 -0.1748225 -0.013275 -0.051635 -0.00885 -0.095155 -0.02655 -0.1305625 -0.053125 -0.035405 -0.02655 -0.0619625 -0.0627 -0.079665 -0.108425C0.2588525 13.687675 0.25 13.627925 0.25 13.55415V11.42975l0.000225 -0.01575c0.0021125 -0.072525 0.0190025 -0.132175 0.0506725 -0.179 0.0339325 -0.05015 0.0804025 -0.0959 0.139415 -0.1372 0.0914675 -0.059025 0.205065 -0.106225 0.34079 -0.141625 0.1357275 -0.0354 0.2876825 -0.053125 0.455865 -0.053125Zm5.1694075 0c0.177025 0 0.341525 0.022875 0.493475 0.0686 0.151975 0.04575 0.282525 0.115825 0.3917 0.21025 0.109175 0.0944 0.194725 0.213175 0.2567 0.356275 0.06195 0.1431 0.09295 0.3135 0.09295 0.511175 0 0.18885 -0.026575 0.354075 -0.079675 0.4957 -0.0531 0.141625 -0.12835 0.2604 -0.225725 0.3563 -0.097375 0.095875 -0.21465 0.167425 -0.35185 0.21465 -0.1372 0.0472 -0.2899 0.0708 -0.458075 0.0708 -0.126875 0 -0.2449 -0.019175 -0.354075 -0.057525v0.7347l-0.007125 0.00205c-0.02975 0.008275 -0.074575 0.017175 -0.1345 0.0267 -0.0649 0.010325 -0.1313 0.0155 -0.19915 0.0155 -0.064925 0 -0.1232 -0.004425 -0.174825 -0.013275 -0.05165 -0.00885 -0.095175 -0.02655 -0.130575 -0.053125 -0.0354 -0.02655 -0.06195 -0.0627 -0.07965 -0.108425 -0.017725 -0.045725 -0.026575 -0.105475 -0.026575 -0.17925V11.42975l0.000225 -0.01575c0.002125 -0.072525 0.019 -0.132175 0.050675 -0.179 0.033925 -0.05015 0.0804 -0.0959 0.139425 -0.1372 0.09145 -0.059025 0.20505 -0.106225 0.340775 -0.141625 0.135725 -0.0354 0.2877 -0.053125 0.455875 -0.053125Zm-2.49175 0c0.3334 0 0.5901 0.07305 0.7701 0.2191 0.179975 0.14605 0.269975 0.3489 0.269975 0.60855v1.3853l-0.00775 0.0022c-0.029625 0.008125 -0.073525 0.016225 -0.131675 0.02435 -0.063425 0.00885 -0.129075 0.013275 -0.19695 0.013275 -0.0649 0 -0.123175 -0.004425 -0.174825 -0.013275 -0.051625 -0.00885 -0.09515 -0.02655 -0.13055 -0.053125 -0.035425 -0.02655 -0.0627 -0.0627 -0.081875 -0.108425 -0.0192 -0.045725 -0.028775 -0.105475 -0.028775 -0.17925v-1.0445l-0.000225 -0.01425c-0.002575 -0.084225 -0.028325 -0.1466 -0.077225 -0.187125 -0.05165 -0.042775 -0.121725 -0.064175 -0.210225 -0.064175 -0.059025 0 -0.1173 0.007375 -0.174825 0.022125 -0.05755 0.01475 -0.106975 0.036875 -0.148275 0.0664v1.535775l-0.007725 0.0022c-0.02965 0.008125 -0.07355 0.016225 -0.1317 0.02435 -0.063425 0.00885 -0.129075 0.013275 -0.19695 0.013275 -0.0649 0 -0.123175 -0.004425 -0.1748 -0.013275 -0.05165 -0.00885 -0.095175 -0.02655 -0.130575 -0.053125 -0.0354 -0.02655 -0.0627 -0.0627 -0.081875 -0.108425 -0.019175 -0.045725 -0.028775 -0.105475 -0.028775 -0.17925v-1.32775l0.000225 -0.01575c0.002125 -0.0725 0.019 -0.132175 0.050675 -0.179 0.033925 -0.05015 0.0804 -0.095875 0.139425 -0.1372 0.1003 -0.0708 0.22645 -0.12835 0.3784 -0.1726 0.15195 -0.04425 0.320875 -0.0664 0.506775 -0.0664Zm6.483875 0c0.112125 0 0.222025 0.014775 0.329725 0.044275 0.1077 0.0295 0.2036 0.075975 0.287675 0.1394 0.0841 0.06345 0.151225 0.14755 0.201375 0.252275 0.050175 0.10475 0.07525 0.232375 0.07525 0.38285v1.39415l-0.007725 0.0022c-0.02965 0.008125 -0.073525 0.016225 -0.131675 0.02435 -0.06345 0.00885 -0.1291 0.013275 -0.196975 0.013275 -0.0649 0 -0.123175 -0.004425 -0.1748 -0.013275 -0.05165 -0.00885 -0.095175 -0.02655 -0.130575 -0.053125 -0.0354 -0.02655 -0.0627 -0.0627 -0.081875 -0.108425 -0.019175 -0.045725 -0.028775 -0.105475 -0.028775 -0.17925v-1.057775l-0.000225 -0.014525c-0.002625 -0.08105 -0.027625 -0.140375 -0.075 -0.178 -0.050175 -0.039825 -0.118025 -0.05975 -0.2036 -0.05975 -0.0413 0 -0.085575 0.0096 -0.132775 0.028775 -0.0472 0.019175 -0.082625 0.0391 -0.106225 0.05975 0.00295 0.0118 0.004425 0.02285 0.004425 0.033175v1.5026l-0.008425 0.0022c-0.032125 0.008125 -0.07725 0.016225 -0.1354 0.02435 -0.06345 0.00885 -0.127625 0.013275 -0.192525 0.013275 -0.064925 0 -0.1232 -0.004425 -0.174825 -0.013275 -0.05165 -0.00885 -0.095175 -0.02655 -0.130575 -0.053125 -0.0354 -0.02655 -0.0627 -0.0627 -0.081875 -0.108425 -0.019175 -0.045725 -0.028775 -0.105475 -0.028775 -0.17925v-1.057775l-0.000225 -0.013775c-0.002725 -0.081425 -0.029925 -0.141025 -0.08165 -0.17875 -0.054575 -0.039825 -0.120225 -0.05975 -0.19695 -0.05975 -0.0531 0 -0.09885 0.008125 -0.1372 0.02435 -0.03835 0.016225 -0.0708 0.0317 -0.097375 0.046475v1.553475l-0.007725 0.0022c-0.029625 0.008125 -0.073525 0.016225 -0.131675 0.02435 -0.06345 0.00885 -0.1291 0.013275 -0.19695 0.013275 -0.064925 0 -0.1232 -0.004425 -0.174825 -0.013275 -0.05165 -0.00885 -0.09515 -0.02655 -0.130575 -0.053125 -0.0354 -0.02655 -0.0627 -0.0627 -0.081875 -0.108425 -0.019175 -0.045725 -0.028775 -0.105475 -0.028775 -0.17925v-1.3366l0.00025 -0.015725c0.0021 -0.072325 0.019 -0.130525 0.05065 -0.1746 0.03395 -0.0472 0.080425 -0.09145 0.139425 -0.132775 0.100325 -0.0708 0.224975 -0.12835 0.373975 -0.1726 0.149025 -0.04425 0.30465 -0.0664 0.46695 -0.0664 0.12095 0 0.239725 0.016975 0.356275 0.0509 0.11655 0.03395 0.2176 0.084825 0.303175 0.1527 0.0885 -0.059 0.1881 -0.1077 0.298725 -0.14605 0.11065 -0.03835 0.244175 -0.05755 0.40055 -0.05755ZM1.2635225 11.4917c-0.05606 0 -0.10622 0.00665 -0.15048 0.019925 -0.0442575 0.013275 -0.082615 0.02875 -0.1150725 0.046475v0.973675l0.01795 0.0086c0.030325 0.01395 0.0627 0.025825 0.0971225 0.03565 0.0413075 0.011825 0.0855675 0.017725 0.1327775 0.017725 0.3039075 0 0.4558625 -0.181475 0.4558625 -0.5444 0 -0.188825 -0.03762 -0.328975 -0.11286 -0.42045 -0.07524 -0.091475 -0.1836725 -0.1372 -0.3253 -0.1372Zm5.1694025 0c-0.05605 0 -0.106225 0.00665 -0.150475 0.019925 -0.04425 0.013275 -0.082625 0.02875 -0.115075 0.046475v0.973675l0.01795 0.0086c0.030325 0.01395 0.0627 0.025825 0.097125 0.03565 0.0413 0.011825 0.085575 0.017725 0.132775 0.017725 0.3039 0 0.455875 -0.181475 0.455875 -0.5444 0 -0.188825 -0.037625 -0.328975 -0.112875 -0.42045 -0.075225 -0.091475 -0.183675 -0.1372 -0.3253 -0.1372Z" stroke-width="0.25"></path>
</svg>