<svg width="100" height="100" viewBox="0 0 100 100" fill="none" xmlns="http://www.w3.org/2000/svg">
<g id="prisma">
<g id="prisma_2">
<path id="Vector" fill-rule="evenodd" clip-rule="evenodd" d="M9.77386 68.6384C8.75652 67.0338 8.74115 64.9898 9.73424 63.3696L47.1259 2.37625C49.2057 -1.01618 54.2275 -0.719555 55.8935 2.89408L90.0526 76.9933C91.3198 79.7427 89.861 82.9775 86.961 83.8475L33.824 99.7887C31.686 100.43 29.3825 99.5705 28.1874 97.6853L9.77386 68.6384ZM51.4401 20.2102C51.8004 18.4159 54.2589 18.1572 54.985 19.8371L78.5475 74.3594C78.9908 75.386 78.4389 76.5699 77.3673 76.8895L40.6538 87.8491C39.3043 88.2518 38.0116 87.0728 38.2889 85.6918L51.4401 20.2102Z" fill="white"/>
</g>
</g>
</svg>
