<?xml version="1.0" encoding="UTF-8"?>
<svg version="1.1" xmlns="http://www.w3.org/2000/svg" width="163" height="163">
<path d="M0 0 C0.99 0.495 0.99 0.495 2 1 C1.7267691 2.01633011 1.45353821 3.03266022 1.17202759 4.07978821 C0.77825927 5.54448445 0.38449096 7.0091807 -0.00927734 8.47387695 C-0.33217617 9.67495401 -0.33217617 9.67495401 -0.66159821 10.90029526 C-1.89832218 15.50052757 -3.13500099 20.10077202 -4.37161255 24.70103455 C-6.89306456 34.08087346 -9.41472641 43.4606557 -11.93744278 52.84015465 C-13.37253891 58.17593979 -14.80742386 63.5117817 -16.2421875 68.84765625 C-16.52895607 69.91414272 -16.81572464 70.9806292 -17.11118317 72.07943344 C-20.74262283 85.58611861 -24.36615875 99.09487999 -27.97743607 112.60696983 C-29.23297064 117.30365776 -30.49011249 121.9999158 -31.74719048 126.69619083 C-32.90886183 131.03707134 -34.0675018 135.37874707 -35.22399712 139.72100925 C-35.76208494 141.73927471 -36.30168898 143.75712703 -36.8420105 145.77479553 C-37.49091692 148.19802858 -38.13733726 150.6219293 -38.78079224 153.0466156 C-39.06131439 154.09116409 -39.34183655 155.13571259 -39.63085938 156.21191406 C-39.87300171 157.1194342 -40.11514404 158.02695435 -40.36462402 158.9619751 C-41 161 -41 161 -42 162 C-44.21855264 162.08783542 -46.43988496 162.10694609 -48.66015625 162.09765625 C-49.87582275 162.09515869 -51.09148926 162.09266113 -52.34399414 162.09008789 C-53.91682961 162.08092387 -55.48966486 162.07172136 -57.0625 162.0625 C-59.7271313 162.05101225 -62.39176243 162.03984767 -65.05639648 162.02905273 C-67.37093099 162.01936849 -69.68546549 162.00968424 -72 162 C-65.91026412 138.04051064 -59.5889771 114.15034573 -53.11077881 90.29315186 C-51.96215485 86.06112181 -50.81617567 81.82837562 -49.66992188 77.59570312 C-47.44908799 69.39646348 -45.22551535 61.1979702 -43 53 C-55.51979245 60.79447641 -55.51979245 60.79447641 -67.9375 68.75 C-68.99432983 69.43412964 -68.99432983 69.43412964 -70.07250977 70.13208008 C-74.57023562 73.04939758 -79.0304683 76.01529598 -83.43359375 79.07421875 C-85 80 -85 80 -87 80 C-86.74605469 78.90042969 -86.49210937 77.80085938 -86.23046875 76.66796875 C-86.06635498 75.95713135 -85.90224121 75.24629395 -85.7331543 74.51391602 C-85.36663139 72.95123291 -84.99165955 71.39050951 -84.60864258 69.83178711 C-83.78419015 66.46878812 -83.02685237 63.21326982 -82.59375 59.7734375 C-81.8738776 54.9696736 -80.82306466 52.70438511 -77.07421875 49.49609375 C-73.8729525 47.24496297 -70.5327571 45.24865051 -67.15429688 43.27685547 C-63.57070634 41.15285519 -60.1084537 38.84556894 -56.625 36.5625 C-55.19094913 35.63541043 -53.75604736 34.70963576 -52.3203125 33.78515625 C-48.04338994 31.02880999 -43.77129676 28.26505345 -39.5 25.5 C-38.08725704 24.58591052 -36.6744966 23.67184805 -35.26171875 22.7578125 C-31.6635469 20.42963233 -28.06602789 18.10044596 -24.46899414 15.77050781 C-23.04571862 14.84947953 -21.62174146 13.92953448 -20.19702148 13.01074219 C-16.74745558 10.78552811 -13.30899335 8.5463411 -9.890625 6.2734375 C-9.24440186 5.84756348 -8.59817871 5.42168945 -7.93237305 4.98291016 C-6.71339379 4.17917008 -5.49847687 3.36922424 -4.28833008 2.55224609 C-2.8973601 1.63994999 -1.45260929 0.81056025 0 0 Z " fill="#3395FF" transform="translate(151,1)"/>
<path d="M0 0 C1.6957885 3.391577 -0.11726908 6.9460076 -1.07373047 10.45703125 C-1.42223053 11.76938248 -1.42223053 11.76938248 -1.777771 13.10824585 C-2.55067197 16.01155659 -3.33380531 18.91200135 -4.1171875 21.8125 C-4.65486826 23.82252249 -5.19198072 25.83269707 -5.72854614 27.84301758 C-6.85587414 32.06090921 -7.98786492 36.27751105 -9.12353516 40.49316406 C-10.58156508 45.90565266 -12.03151205 51.32026239 -13.47842216 56.73573303 C-14.85516127 61.88708638 -16.23606556 67.03732036 -17.6171875 72.1875 C-17.88178646 73.17569733 -18.14638542 74.16389465 -18.41900253 75.18203735 C-19.16618674 77.96964156 -19.91634134 80.75642799 -20.66748047 83.54296875 C-20.88987396 84.37420258 -21.11226746 85.2054364 -21.34140015 86.06185913 C-22.8852474 91.7704948 -22.8852474 91.7704948 -24 94 C-44.13 94 -64.26 94 -85 94 C-83.87422554 84.99380429 -83.87422554 84.99380429 -83.03198242 81.75878906 C-82.8447612 81.03153625 -82.65753998 80.30428345 -82.46464539 79.55499268 C-82.16310295 78.42175568 -82.16310295 78.42175568 -81.85546875 77.265625 C-81.64440994 76.46517761 -81.43335114 75.66473022 -81.21589661 74.84002686 C-80.77079239 73.16194269 -80.32272854 71.48464097 -79.87182617 69.80810547 C-79.1865864 67.24658485 -78.52183922 64.68027029 -77.85742188 62.11328125 C-77.42051899 60.47622888 -76.98240962 58.83949792 -76.54296875 57.203125 C-76.34801315 56.43953674 -76.15305756 55.67594849 -75.95219421 54.88922119 C-73.81689287 47.13043302 -69.34004903 44.36680649 -62.8125 40.25 C-62.08417969 39.78464844 -61.35585938 39.31929687 -60.60546875 38.83984375 C-58.97611982 37.79931894 -57.34533856 36.76103473 -55.71337891 35.72460938 C-51.7134101 33.18225022 -47.72306847 30.62490778 -43.73168945 28.0690918 C-41.57311048 26.68705986 -39.41409167 25.30571467 -37.25463867 23.92504883 C-30.35008006 19.51007166 -23.46025247 15.07327026 -16.58422852 10.61401367 C-11.07650545 7.04369451 -5.54643998 3.50995014 0 0 Z " fill="#072654" transform="translate(96,69)"/>
</svg>
