<svg width="100" height="100" viewBox="0 0 100 100" fill="none" xmlns="http://www.w3.org/2000/svg">
<g id="reactquery">
<g id="reactquery_2">
<path id="Vector" fill-rule="evenodd" clip-rule="evenodd" d="M61.7111 60.6581L59.7929 63.9888C59.2151 64.9922 58.1454 65.6106 56.9875 65.6106H42.2933C41.1354 65.6106 40.0657 64.9922 39.4878 63.9888L37.5695 60.6581H61.7111ZM67.081 51.3338L63.6988 57.2064H35.5817L32.1997 51.3338H67.081ZM63.8231 42.2158L67.0864 47.8823H32.1943L35.4576 42.2158H63.8231ZM56.9875 33.5962C58.1454 33.5962 59.2151 34.2146 59.7929 35.2179L61.8353 38.7642H37.4454L39.4878 35.2179C40.0657 34.2146 41.1354 33.5962 42.2933 33.5962H56.9875Z" fill="#00435B"/>
<path id="Vector_2" d="M20.9074 32.0506C19.2796 24.1576 18.9303 18.1038 19.9824 13.7079C20.6082 11.0934 21.7523 8.96062 23.4919 7.42183C25.3285 5.79726 27.6505 5.00008 30.2596 5.00008C34.5638 5.00008 39.0886 6.96285 43.9241 10.6916C45.8964 12.2125 47.9434 14.0456 50.0693 16.1922C50.2385 15.9743 50.4298 15.7689 50.6429 15.5789C56.6531 10.223 61.7133 6.8952 66.0413 5.61212C68.6147 4.8492 71.0308 4.77652 73.231 5.51696C75.5535 6.29854 77.404 7.91418 78.7096 10.1772C80.8644 13.912 81.4326 18.8195 80.6293 24.879C80.3018 27.3489 79.742 30.0394 78.9511 32.9545C79.2495 32.9906 79.5486 33.0567 79.8448 33.1548C87.4705 35.6819 92.8703 38.3994 96.1395 41.5051C98.0846 43.3529 99.3547 45.4101 99.8139 47.6872C100.299 50.0907 99.826 52.5015 98.5219 54.7628C96.3712 58.4922 92.4167 61.4335 86.7829 63.7632C84.5208 64.6987 81.9614 65.5459 79.1017 66.3079C79.2322 66.6025 79.3334 66.9154 79.4011 67.2436C81.0289 75.1366 81.3782 81.1904 80.326 85.5863C79.7003 88.2008 78.5562 90.3336 76.8166 91.8724C74.98 93.4969 72.6579 94.2941 70.0489 94.2941C65.7447 94.2941 61.2199 92.3314 56.3844 88.6026C54.3911 87.0656 52.3215 85.2095 50.1713 83.0334C49.95 83.3795 49.6784 83.7011 49.3571 83.9874C43.3469 89.3434 38.2867 92.6712 33.9587 93.9543C31.3853 94.7172 28.9692 94.7899 26.769 94.0494C24.4465 93.2679 22.596 91.6522 21.2904 89.3892C19.1356 85.6544 18.5674 80.7469 19.3707 74.6874C19.71 72.1282 20.2987 69.3322 21.1356 66.2949C20.8085 66.2617 20.48 66.1925 20.1552 66.0849C12.5295 63.5578 7.12969 60.8403 3.86052 57.7346C1.91544 55.8868 0.645278 53.8297 0.186124 51.5526C-0.298514 49.149 0.174045 46.7383 1.47813 44.4769C3.62884 40.7476 7.58335 37.8062 13.2171 35.4765C15.5466 34.5132 18.1914 33.6434 21.1547 32.864C21.0491 32.6055 20.9658 32.3338 20.9074 32.0506Z" fill="#002B3B"/>
<path id="Vector_3" fill-rule="evenodd" clip-rule="evenodd" d="M40.4916 29.5361C44.4445 29.2215 48.5189 29.0826 52.7147 29.1193C53.5093 29.1263 54.1591 28.4877 54.1661 27.6931C54.169 27.3584 54.0552 27.0332 53.8442 26.7734C44.2942 15.015 36.4306 9.13574 30.2533 9.13574C23.8759 9.13574 22.0565 16.1656 24.7952 30.2253C24.9453 30.996 25.6855 31.504 26.4586 31.367C31.3343 30.5029 36.012 29.8926 40.4916 29.5361Z" fill="#FF4154"/>
<path id="Vector_4" fill-rule="evenodd" clip-rule="evenodd" d="M62.6817 31.4713C64.9646 34.7608 67.1556 38.2444 69.2547 41.9221C69.6486 42.6123 70.5274 42.8524 71.2176 42.4585C71.507 42.2933 71.73 42.0328 71.8488 41.7214C77.2508 27.5521 78.3861 17.7803 75.2547 12.4061C72.0233 6.86031 64.9824 8.7779 54.1321 18.1589C53.5355 18.6746 53.4653 19.5745 53.9747 20.1766C57.1985 23.9874 60.1008 27.7523 62.6817 31.4713Z" fill="#FF4154"/>
<path id="Vector_5" fill-rule="evenodd" clip-rule="evenodd" d="M72.2631 51.2666C70.5546 54.8574 68.6342 58.4663 66.5019 62.0933C66.0992 62.7784 66.3281 63.6602 67.0131 64.0629C67.3031 64.2334 67.6438 64.2969 67.9757 64.2423C82.8629 61.7946 91.8526 57.8878 94.9449 52.522C98.1386 46.9802 93.0027 41.9009 79.5372 37.284C78.7954 37.0296 77.9866 37.4161 77.7184 38.153C76.0193 42.823 74.2008 47.1941 72.2631 51.2666Z" fill="#FF4154"/>
<path id="Vector_6" fill-rule="evenodd" clip-rule="evenodd" d="M60.048 69.8506C56.0951 70.1652 52.0207 70.3042 47.8249 70.2674C47.0303 70.2605 46.3804 70.899 46.3735 71.6936C46.3706 72.0283 46.4844 72.3535 46.6954 72.6133C56.2453 84.3718 64.1089 90.251 70.2862 90.251C76.6637 90.251 78.4831 83.2211 75.7444 69.1614C75.5943 68.3907 74.8541 67.8827 74.081 68.0197C69.2052 68.8838 64.5276 69.4941 60.048 69.8506Z" fill="#FF4154"/>
<path id="Vector_7" fill-rule="evenodd" clip-rule="evenodd" d="M37.3181 68.0951C35.0352 64.8056 32.8443 61.322 30.7452 57.6443C30.3512 56.9542 29.4724 56.714 28.7823 57.1079C28.4929 57.2731 28.2698 57.5336 28.1511 57.845C22.749 72.0143 21.6137 81.7861 24.7451 87.1603C27.9765 92.7061 35.0174 90.7885 45.8677 81.4075C46.4643 80.8918 46.5345 79.9919 46.0252 79.3898C42.8014 75.579 39.899 71.8141 37.3181 68.0951Z" fill="#FF4154"/>
<path id="Vector_8" fill-rule="evenodd" clip-rule="evenodd" d="M27.7369 47.7602C29.4455 44.1694 31.3659 40.5605 33.4981 36.9334C33.9008 36.2484 33.672 35.3666 32.9869 34.9638C32.6969 34.7933 32.3563 34.7299 32.0243 34.7844C17.1371 37.2322 8.14742 41.139 5.05511 46.5048C1.8614 52.0466 6.9973 57.1259 20.4628 61.7428C21.2046 61.9972 22.0135 61.6106 22.2816 60.8737C23.9808 56.2038 25.7992 51.8326 27.7369 47.7602Z" fill="#FF4154"/>
<path id="Vector_9" fill-rule="evenodd" clip-rule="evenodd" d="M43.4745 33.7759H55.8088C57.6126 33.7759 59.2787 34.7407 60.1766 36.3052L66.3698 47.0965C67.2607 48.6489 67.2607 50.5575 66.3698 52.1099L60.1766 62.9013C59.2787 64.4658 57.6126 65.4306 55.8088 65.4306H43.4745C41.6706 65.4306 40.0045 64.4658 39.1067 62.9013L32.9135 52.1099C32.0225 50.5575 32.0225 48.6489 32.9135 47.0965L39.1067 36.3052C40.0045 34.7407 41.6706 33.7759 43.4745 33.7759ZM53.9289 37.033C55.7337 37.033 57.4005 37.9987 58.298 39.5645L62.6167 47.0988C63.5059 48.65 63.5059 50.5564 62.6167 52.1076L58.298 59.6419C57.4005 61.2077 55.7337 62.1735 53.9289 62.1735H45.3543C43.5495 62.1735 41.8827 61.2077 40.9852 59.6419L36.6666 52.1076C35.7774 50.5564 35.7774 48.65 36.6666 47.0988L40.9852 39.5645C41.8827 37.9987 43.5495 37.033 45.3543 37.033H53.9289ZM51.9027 40.5954H47.3805C45.5776 40.5954 43.9122 41.5592 43.014 43.1225L40.7319 47.0943C39.8393 48.6478 39.8393 50.5586 40.7319 52.1121L43.014 56.084C43.9122 57.6472 45.5776 58.6111 47.3805 58.6111H51.9027C53.7057 58.6111 55.3711 57.6472 56.2693 56.084L58.5514 52.1121C59.444 50.5586 59.444 48.6478 58.5514 47.0943L56.2693 43.1225C55.3711 41.5592 53.7057 40.5954 51.9027 40.5954ZM49.9517 44.0051C51.7533 44.0051 53.4176 44.9675 54.3164 46.5289L54.6399 47.0911C55.535 48.6462 55.535 50.5602 54.6399 52.1154L54.3164 52.6775C53.4176 54.2389 51.7533 55.2013 49.9517 55.2013H49.3316C47.53 55.2013 45.8656 54.2389 44.9669 52.6775L44.6434 52.1154C43.7483 50.5602 43.7483 48.6462 44.6434 47.0911L44.9669 46.5289C45.8656 44.9675 47.53 44.0051 49.3316 44.0051H49.9517ZM49.6424 47.364C48.8406 47.364 48.1011 47.7907 47.7008 48.4836C47.3005 49.1763 47.3005 50.0301 47.7008 50.7228C48.1011 51.4157 48.8406 51.8425 49.6408 51.8425C50.4427 51.8425 51.1821 51.4157 51.5825 50.7228C51.9828 50.0301 51.9828 49.1763 51.5825 48.4836C51.1821 47.7907 50.4427 47.364 49.6424 47.364ZM31.4749 49.6032H35.5064H31.4749Z" fill="#FFD94C"/>
</g>
</g>
</svg>
