<svg role="img" viewBox="0 0 24 24" xmlns="http://www.w3.org/2000/svg" id="Redis--Streamline-Simple-Icons" height="24" width="24">
  <desc>
    Redis Streamline Icon: https://streamlinehq.com
  </desc>
  <title>Redis</title>
  <path d="M22.71 13.145c-1.66 2.092 -3.452 4.483 -7.038 4.483 -3.203 0 -4.397 -2.825 -4.48 -5.12 0.701 1.484 2.073 2.685 4.214 2.63 4.117 -0.133 6.94 -3.852 6.94 -7.239 0 -4.05 -3.022 -6.972 -8.268 -6.972 -3.752 0 -8.4 1.428 -11.455 3.685C2.59 6.937 3.885 9.958 4.35 9.626c2.648 -1.904 4.748 -3.13 6.784 -3.744C8.12 9.244 0.886 17.05 0 18.425c0.1 1.261 1.66 4.648 2.424 4.648 0.232 0 0.431 -0.133 0.664 -0.365a100.49 100.49 0 0 0 5.54 -6.765c0.222 3.104 1.748 6.898 6.014 6.898 3.819 0 7.604 -2.756 9.33 -8.965 0.2 -0.764 -0.73 -1.361 -1.261 -0.73zm-4.349 -5.013c0 1.959 -1.926 2.922 -3.685 2.922 -0.941 0 -1.664 -0.247 -2.235 -0.568 1.051 -1.592 2.092 -3.225 3.21 -4.973 1.972 0.334 2.71 1.43 2.71 2.619z" fill="#d61517" stroke-width="1"></path>
</svg>