<svg xmlns="http://www.w3.org/2000/svg" fill="none" viewBox="0 0 96 96" id="Rollupjs--Streamline-Svg-Logos" height="24" width="24">
  <desc>
    Rollupjs Streamline Icon: https://streamlinehq.com
  </desc>
  <path fill="url(#a)" d="M83.964 31.9481c0-5.5341-1.4494-10.7223-4.0023-15.2187-6.7694-6.96702-21.494-8.58113-25.1504-.033-3.7553 8.7623 6.3082 18.5128 10.7058 17.7387 5.6-.9882-.9882-13.8352-.9882-13.8352 8.5646 16.1411 6.5882 11.1999-8.8941 26.0233C40.1526 61.4467 24.341 92.724 22.0351 94.0417c-.0988.0659-.1976.1153-.3129.1647h60.7265c1.0706 0 1.7624-1.1365 1.2847-2.0918L67.8559 60.689c-.3459-.6753-.0988-1.5153.56-1.8941 9.2893-5.3364 15.5481-15.3504 15.5481-26.8468Z"></path>
  <path fill="url(#b)" d="M83.964 31.9481c0-5.5341-1.4494-10.7223-4.0023-15.2187-6.7694-6.96702-21.494-8.58113-25.1504-.033-3.7553 8.7623 6.3082 18.5128 10.7058 17.7387 5.6-.9882-.9882-13.8352-.9882-13.8352 8.5646 16.1411 6.5882 11.1999-8.8941 26.0233C40.1526 61.4467 24.341 92.724 22.0351 94.0417c-.0988.0659-.1976.1153-.3129.1647h60.7265c1.0706 0 1.7624-1.1365 1.2847-2.0918L67.8559 60.689c-.3459-.6753-.0988-1.5153.56-1.8941 9.2893-5.3364 15.5481-15.3504 15.5481-26.8468Z"></path>
  <path fill="url(#c)" d="M22.0352 94.0412c2.3059-1.3176 18.1175-32.6115 33.5997-47.4349 15.4822-14.8234 17.4587-9.8822 8.8941-26.0233 0 0-32.7762 45.9526-44.635 68.6818"></path>
  <path fill="url(#d)" d="M26.6466 52.8655C48.7829 12.167 51.6817 8.06583 63.211 8.06583c6.0611 0 12.1717 2.73407 16.1246 7.59287C73.9498 6.97877 64.4134 1.1647 53.4935 1H15.8914c-.7906 0-1.4329.64235-1.4329 1.43293V78.23c2.24-5.7812 6.0447-14.0493 12.1881-25.3645Z"></path>
  <path fill="url(#e)" d="M55.6348 46.6068C40.1526 61.4302 24.341 92.724 22.0351 94.0417c-2.3059 1.3176-6.1764 1.4823-8.2352-.8236-2.1906-2.4541-5.59999-6.4234 12.8469-40.3526C48.7831 12.1671 51.6819 8.06592 63.2112 8.06592c6.0612 0 12.1717 2.73408 16.1246 7.59288.2141.3459.4282.7082.6423 1.0706-6.7693-6.96703-21.4939-8.58113-25.1503-.033-3.7553 8.7623 6.3081 18.5128 10.7058 17.7387 5.5999-.9882-.9883-13.8352-.9883-13.8352 8.5482 16.1246 6.5717 11.1835-8.9105 26.0069Z"></path>
  <path fill="url(#f)" d="M28.4586 54.6773C50.5949 13.9788 53.4937 9.87767 65.023 9.87767c4.9905 0 10.014 1.86113 13.8351 5.22113-3.9529-4.5129-9.8163-7.03288-15.6469-7.03288-11.5293 0-14.4281 4.10118-36.5644 44.79968C8.19991 86.7947 11.6093 90.7641 13.7999 93.2182c.3129.3458.6753.6423 1.0541.8894-1.9271-2.8-2.7835-9.3058 13.6046-39.4303Z" opacity=".3"></path>
  <defs>
    <linearGradient id="a" x1="1691.32" x2="4261.38" y1="4029.26" y2="4364.46" gradientUnits="userSpaceOnUse">
      <stop stop-color="#ff6533"></stop>
      <stop offset=".157" stop-color="#ff5633"></stop>
      <stop offset=".434" stop-color="#ff4333"></stop>
      <stop offset=".714" stop-color="#ff3733"></stop>
      <stop offset="1" stop-color="#f33"></stop>
    </linearGradient>
    <linearGradient id="b" x1="1294.59" x2="6408.25" y1="3188.46" y2="5400.62" gradientUnits="userSpaceOnUse">
      <stop stop-color="#bf3338"></stop>
      <stop offset="1" stop-color="#f33"></stop>
    </linearGradient>
    <linearGradient id="c" x1="1623.89" x2="2429.2" y1="2921.95" y2="3308.56" gradientUnits="userSpaceOnUse">
      <stop stop-color="#ff6533"></stop>
      <stop offset=".157" stop-color="#ff5633"></stop>
      <stop offset=".434" stop-color="#ff4333"></stop>
      <stop offset=".714" stop-color="#ff3733"></stop>
      <stop offset="1" stop-color="#f33"></stop>
    </linearGradient>
    <linearGradient id="d" x1="3359.79" x2="3080.51" y1="6051.54" y2="3226.69" gradientUnits="userSpaceOnUse">
      <stop stop-color="#ff6533"></stop>
      <stop offset=".157" stop-color="#ff5633"></stop>
      <stop offset=".434" stop-color="#ff4333"></stop>
      <stop offset=".714" stop-color="#ff3733"></stop>
      <stop offset="1" stop-color="#f33"></stop>
    </linearGradient>
    <linearGradient id="e" x1="2743.39" x2="3766.94" y1="4112.65" y2="4537.78" gradientUnits="userSpaceOnUse">
      <stop stop-color="#fbb040"></stop>
      <stop offset="1" stop-color="#fb8840"></stop>
    </linearGradient>
    <linearGradient id="f" x1="3702.1" x2="2132.22" y1="514.664" y2="10930.2" gradientUnits="userSpaceOnUse">
      <stop stop-color="#fff"></stop>
      <stop offset="1" stop-color="#fff" stop-opacity="0"></stop>
    </linearGradient>
  </defs>
</svg>