<svg xmlns="http://www.w3.org/2000/svg" fill="none" viewBox="0 0 24 24" id="Swagger--Streamline-Svg-Logos" height="24" width="24">
  <desc>
    Swagger Streamline Icon: https://streamlinehq.com
  </desc>
  <path fill="#85ea2d" d="M11.999775 23.189725c-6.170075 0 -11.18996 -5.019425 -11.18996 -11.1897 0 -6.1703 5.019885 -11.1897225 11.18996 -11.1897225 6.17005 0 11.18995 5.0198975 11.18995 11.1899475 0 6.17005 -5.0199 11.189475 -11.18995 11.189475Z" stroke-width="0.25"></path>
  <path fill="#173647" d="M11.999875 1.37022C17.870725 1.37022 22.629675 6.129175 22.629675 12c0 5.8706 -4.75895 10.629775 -10.6298 10.629775C6.129275 22.629775 1.3701 17.8706 1.3701 12c0 -5.8706 4.759175 -10.62978 10.629775 -10.62978Zm0 -1.1200975C5.520975 0.2501225 0.25 5.5211 0.25 12c0 6.478925 5.270975 11.749875 11.749875 11.749875C18.4788 23.749875 23.75 18.478925 23.75 12 23.75 5.5211 18.4788 0.2501225 11.999875 0.2501225Z" stroke-width="0.25"></path>
  <path fill="#173647" d="M7.6486 8.20145c-0.036175 0.4021 0.0134 0.8178 -0.013375 1.224375 -0.031725 0.4068 -0.0815 0.8089 -0.162775 1.211 -0.112975 0.573775 -0.469975 1.0076 -0.962275 1.36905 0.95805 0.623575 1.066325 1.590325 1.1295 2.5709 0.0317 0.5287 0.0181 1.06185 0.07235 1.58585 0.040625 0.40655 0.1987 0.5106 0.619125 0.524 0.171675 0.00445 0.3476 0 0.546775 0v1.256075c-1.242475 0.212325 -2.26815 -0.139975 -2.52135 -1.192675 -0.0815 -0.384 -0.13575 -0.777175 -0.1536 -1.174825 -0.02725 -0.420175 0.01785 -0.84035 -0.013625 -1.26055 -0.090425 -1.152275 -0.239575 -1.54075 -1.341825 -1.595v-1.43225c0.081275 -0.018075 0.158075 -0.0317 0.23935 -0.040625 0.6055 -0.0317 0.8629 -0.217025 0.993975 -0.81335 0.0634 -0.334225 0.099575 -0.67315 0.112975 -1.016525 0.045325 -0.65505 0.027225 -1.323725 0.139975 -1.974325 0.158075 -0.93525 0.73655 -1.38715 1.69905 -1.4414 0.27105 -0.013625 0.546775 0 0.85845 0v1.283325c-0.13105 0.009175 -0.244025 0.027025 -0.36145 0.027025 -0.78165 -0.02725 -0.822525 0.239325 -0.88125 0.889925Zm1.504575 2.972975h-0.018075c-0.4519 -0.022525 -0.840375 0.329775 -0.86315 0.78165 -0.02255 0.456375 0.32975 0.845075 0.78165 0.8674h0.05425c0.447425 0.027225 0.831225 -0.316375 0.85845 -0.763575v-0.0451c0.009175 -0.45635 -0.35675 -0.8312 -0.813125 -0.840375Zm2.833025 0c-0.438275 -0.0136 -0.804425 0.329775 -0.817825 0.763575 0 0.02725 0 0.0498 0.0047 0.0768 0 0.492525 0.334225 0.8089 0.840375 0.8089 0.496975 0 0.808875 -0.3253 0.808875 -0.8359 -0.004675 -0.492525 -0.334675 -0.817825 -0.836125 -0.813375Zm2.900875 0c-0.4608 -0.00915 -0.84505 0.357025 -0.85845 0.817825 0 0.460825 0.3704 0.831225 0.831225 0.831225h0.00915c0.415725 0.072325 0.8359 -0.329775 0.86315 -0.813125 0.022325 -0.447425 -0.38425 -0.835925 -0.845075 -0.835925Zm3.9806 0.06765c-0.524225 -0.02255 -0.78635 -0.1987 -0.917175 -0.695925 -0.0815 -0.316125 -0.13105 -0.646125 -0.149125 -0.971425 -0.036175 -0.6055 -0.031725 -1.21545 -0.07235 -1.82095 -0.0949 -1.4367 -1.13395 -1.93815 -2.64325 -1.6899v1.247175c0.23935 0 0.42465 0 0.609975 0.00445 0.320825 0.004475 0.56485 0.1266 0.596325 0.4836 0.031725 0.3253 0.031725 0.65505 0.063425 0.98505 0.063425 0.6553 0.09935 1.319275 0.212325 1.9654 0.099575 0.53315 0.4655 0.9308 0.921625 1.2561 -0.7995 0.537625 -1.0346 1.30565 -1.075225 2.1688 -0.02255 0.591875 -0.036175 1.1882 -0.06765 1.784775 -0.02725 0.542075 -0.2168 0.718225 -0.763575 0.73185 -0.1536 0.004475 -0.30275 0.0181 -0.474425 0.02725v1.27865c0.320825 0 0.614425 0.018075 0.908 0 0.9127 -0.054275 1.46395 -0.497 1.6448 -1.3827 0.0768 -0.48805 0.1219 -0.98035 0.135525 -1.472875 0.031475 -0.451875 0.02725 -0.90825 0.07235 -1.355425 0.067625 -0.7004 0.388475 -0.989525 1.08885 -1.034625 0.067875 -0.00915 0.13105 -0.02255 0.194475 -0.045075v-1.4325c-0.117675 -0.0136 -0.199175 -0.027 -0.2849 -0.0317Z" stroke-width="0.25"></path>
</svg>