<svg xmlns="http://www.w3.org/2000/svg" width="200" height="200"><path fill="#030303" d="m100.188-.562 2.16-.028c27.557-.231 50.953 11.431 70.715 30.278 17.83 18.305 27.1 42.044 27.232 67.337q.017 2.257.062 4.516c.553 27.978-10.862 51.408-30.044 71.522-19.63 19.092-43.551 27.332-70.5 27.5l-2.16.027c-27.558.231-50.954-11.431-70.715-30.278-17.83-18.305-27.1-42.044-27.233-67.337a369 369 0 0 0-.062-4.516C-.91 70.48 10.505 47.05 29.688 26.938c19.63-19.093 43.55-27.333 70.5-27.5"/><path fill="#FBFBFB" d="M123.75 56.188c11.343 7.836 19.053 17.87 22.953 31.218.452 3.95.522 7.871.547 11.844l.063 2.45c.08 12.49-5.882 25.515-14.399 34.558-12.581 11.451-25.983 14.442-42.5 14.12-6.587-.315-11.76-1.991-17.414-5.378l-2.434-1.352c-11.44-6.906-19.326-18.867-23.151-31.596C45.408 102.123 45.735 89.215 50 80l1.148-2.648C57.993 63.227 69.002 55.837 83 50c13.543-3.948 28.902-.86 40.75 6.188"/><path fill="#F2F2F2" d="m100.188-.562 2.16-.028c27.557-.231 50.953 11.431 70.715 30.278 17.83 18.305 27.1 42.044 27.232 67.337q.017 2.257.062 4.516c.553 27.978-10.862 51.408-30.044 71.522-19.63 19.092-43.551 27.332-70.5 27.5l-2.16.027c-27.558.231-50.954-11.431-70.715-30.278-17.83-18.305-27.1-42.044-27.233-67.337a369 369 0 0 0-.062-4.516C-.91 70.48 10.505 47.05 29.688 26.938c19.63-19.093 43.55-27.333 70.5-27.5M26 36C7.516 57.884 1.476 82.77 3 111c2.195 22.24 12.46 40.317 27 57l1.672 1.93c13.623 14.635 36.742 26.225 56.88 27.193 30.13.825 56.72-5.727 79.183-26.764 18.565-18.171 29.267-42.429 29.645-68.44-.044-26.59-8.182-50.686-27.153-69.853-22.034-21.339-47.549-29.858-78-29.382C66.822 3.606 42.643 17.075 26 36"/><path fill="#030303" d="M108.375 76c7.072 4.07 12.315 10.119 14.625 18 .905 7.646-.143 14.745-4.477 21.2-4.884 6.032-11.224 10.235-19.09 11.073-7.57.257-13.28-.66-19.433-5.273-2.683-2.798-4.936-5.722-7-9l-1.156-1.8c-2.403-6.263-1.96-14.982.219-21.263C79.423 75.817 94.175 69.543 108.375 76"/><path fill="#E6225C" d="M58 162a124 124 0 0 1 5.375 2.813c11.734 5.974 23.64 7.819 36.625 8.187v12c-19.885.837-38.298-4.426-54-17v-3c7.005-4.532 7.005-4.532 12-3"/><path fill="#2E81E8" d="M108 16c18.914.89 35.64 9.64 49 23v3c-1.75 1.605-1.75 1.605-4 3.188l-2.25 1.605L149 48l-2.352-1.941C134.865 36.537 122.733 30.605 108 27z"/><path fill="#2984EC" d="M100 15v11l-2.605.113C84.92 26.807 67.535 28.465 58 38c-4.707-.362-8.247-1.043-12-4v-3c15.528-12.675 34.508-16.859 54-16"/><path fill="#E32662" d="M148 152c3.176.11 4.312 1.27 6.75 3.375C157 158 157 158 157 161a74 74 0 0 1-6.125 5.25l-1.918 1.481C137.613 176.243 122.46 184 108 184v-12l3.875-.812C125.958 167.992 137.639 162.36 148 152"/><path fill="#6361B7" d="M162 46c4.161 1.387 5.327 4.264 7.438 7.875l1.215 2.055C173.827 61.428 176.1 66.944 178 73l.898 2.184c2.729 6.82 2.38 13.56 2.102 20.816h-11l-.262-2.57c-1.55-12.94-5.3-23.882-12.383-34.907C156 56 156 56 156 52c1.313-1.703 1.313-1.703 3-3.25l1.688-1.578z"/><path fill="#9D4792" d="M170 104h11c1.097 14.461-3.462 27.84-11 40.188l-1.5 2.48A90 90 0 0 1 164 153c-3.436-1.527-6.12-3.6-9-6 .647-3.611 2.21-6.062 4.188-9.125 3.086-5.187 5.272-10.342 7.187-16.062l.759-2.23c1.666-5.192 2.404-10.15 2.866-15.583"/><path fill="#BB397D" d="M164 128h13c-1.81 6.86-3.912 12.22-8 18l-1.434 2.05A425 425 0 0 1 164 153c-3.436-1.527-6.12-3.6-9-6 .67-3.86 2.489-6.737 4.5-10.062 2.601-4.307 2.601-4.307 4.5-8.938"/><path fill="#4E6FCC" d="M162 46c3.916 1.305 4.538 2.973 6.688 6.438l1.886 2.996C172 58 172 58 172 60h-11l-1 2-5-7c1.555-3.817 4.036-6.192 7-9"/><path fill="#805DB4" d="M170 84h10v11h-9c-.968-3.873-1.076-7.036-1-11"/><path fill="#4177DA" d="M144 41q2.187-.079 4.375-.125l2.46-.07C153 41 153 41 155 43l-6 5c-2.5-1.812-2.5-1.812-5-4z"/></svg>