<svg width="100" height="100" viewBox="0 0 100 100" fill="none" xmlns="http://www.w3.org/2000/svg">
<g id="vitejs">
<g id="vitejs_2">
<path id="Vector" d="M98.848 14.8011L52.7313 98.6948C51.779 100.427 49.3328 100.437 48.3664 98.7135L1.33543 14.8089C0.28237 12.9308 1.86119 10.6555 3.9535 11.0363L50.1197 19.4308C50.4142 19.4843 50.7158 19.4838 51.0102 19.4292L96.2107 11.048C98.2961 10.6614 99.8822 12.9191 98.848 14.8011Z" fill="url(#paint0_linear_790_7159)"/>
<path id="Vector_2" d="M72.111 0.0246207L37.9836 6.8278C37.7109 6.88215 37.4637 7.02714 37.2809 7.23999C37.098 7.45285 36.9899 7.72148 36.9735 8.00367L34.8743 44.074C34.8627 44.2718 34.8967 44.4697 34.9734 44.6518C35.0502 44.834 35.1676 44.9954 35.3164 45.1233C35.4651 45.2513 35.6412 45.3421 35.8305 45.3888C36.0199 45.4354 36.2173 45.4364 36.4071 45.3919L45.9088 43.1611C46.7977 42.9524 47.6011 43.749 47.4182 44.6584L44.5953 58.7216C44.4055 59.6681 45.2787 60.4772 46.1872 60.1964L52.0561 58.3826C52.9657 58.1017 53.8401 58.9132 53.6476 59.8604L49.1615 81.9503C48.8808 83.3321 50.6874 84.0855 51.4406 82.901L51.9441 82.1098L79.7532 25.6495C80.2191 24.7042 79.4157 23.6262 78.3956 23.8268L68.6147 25.747C67.6959 25.9273 66.914 25.0565 67.1732 24.142L73.5568 1.62925C73.8164 0.712429 73.0314 -0.158743 72.1114 0.0246207H72.111Z" fill="url(#paint1_linear_790_7159)"/>
</g>
</g>
<defs>
<linearGradient id="paint0_linear_790_7159" x1="0.187129" y1="17.8049" x2="51.0375" y2="85.6877" gradientUnits="userSpaceOnUse">
<stop stop-color="#41D1FF"/>
<stop offset="1" stop-color="#BD34FE"/>
</linearGradient>
<linearGradient id="paint1_linear_790_7159" x1="54.3985" y1="1.87182" x2="64.9804" y2="73.2241" gradientUnits="userSpaceOnUse">
<stop stop-color="#FFEA83"/>
<stop offset="0.083" stop-color="#FFDD35"/>
<stop offset="1" stop-color="#FFA800"/>
</linearGradient>
</defs>
</svg>
