<svg xmlns="http://www.w3.org/2000/svg" fill="none" viewBox="0 0 24 24" id="Webrtc--Streamline-Svg-Logos" height="24" width="24">
  <desc>
    Webrtc Streamline Icon: https://streamlinehq.com
  </desc>
  <path fill="#FF6600" d="M13.292375 18.1101c0 2.92015 -2.367075 5.2876 -5.287225 5.2876 -2.92055 0 -5.287625 -2.36745 -5.287625 -5.2876 0 -2.920175 2.367075 -5.287625 5.287625 -5.287625 2.92015 0 5.287225 2.36745 5.287225 5.287625Z" stroke-width="0.25"></path>
  <path fill="#FFCC00" d="M23.75 10.7075c0 2.919775 -2.36705 5.287625 -5.287225 5.287625 -2.92055 0 -5.2876 -2.36785 -5.2876 -5.287625 0 -2.92015 2.36705 -5.288 5.2876 -5.288C21.38295 5.4195 23.75 7.78735 23.75 10.7075Z" stroke-width="0.25"></path>
  <path fill="#0089cc" d="M10.824825 10.590075c0 2.919775 -2.36705 5.2876 -5.2876 5.2876C2.61745 15.877675 0.25 13.50985 0.25 10.590075c0 -2.920175 2.36745 -5.288 5.287225 -5.288 2.92055 0 5.2876 2.367825 5.2876 5.288Z" stroke-width="0.25"></path>
  <path fill="#009939" d="M21.40005 18.1101c0 2.92015 -2.36705 5.2876 -5.288 5.2876 -2.919775 0 -5.287225 -2.36745 -5.287225 -5.2876 0 -2.920175 2.36745 -5.287625 5.287225 -5.287625 2.92095 0 5.288 2.36745 5.288 5.287625Z" stroke-width="0.25"></path>
  <path fill="#bf0000" d="M17.287625 5.889875c0 2.920175 -2.36745 5.287625 -5.2876 5.287625 -2.920175 0 -5.287625 -2.36745 -5.287625 -5.287625 0 -2.92015 2.36745 -5.2876075 5.287625 -5.2876075 2.92015 0 5.2876 2.3674575 5.2876 5.2876075Z" stroke-width="0.25"></path>
  <path fill="#fc0007" d="M13.17505 10.7075c0 0.11125 0.0097 0.220175 0.016675 0.32985 2.34535 -0.541075 4.09575 -2.638 4.09575 -5.147675 0 -0.11125 -0.0097 -0.22055 -0.016675 -0.33025 -2.34535 0.541475 -4.09575 2.638375 -4.09575 5.148075Z" stroke-width="0.25"></path>
  <path fill="#1cd306" d="M13.8728 13.325725c0.91125 1.593025 2.62365 2.6694 4.590325 2.6694 0.80155 0 1.558525 -0.183725 2.23955 -0.5031 -0.910875 -1.59305 -2.623275 -2.6694 -4.590325 -2.6694 -0.80155 0 -1.55855 0.183725 -2.23955 0.5031Z" stroke-width="0.25"></path>
  <path fill="#0f7504" d="M10.824825 18.110175c0 1.291875 0.46435 2.47405 1.234125 3.392275 0.768975 -0.918225 1.233325 -2.1004 1.233325 -3.392275 0 -1.29185 -0.46435 -2.474025 -1.233325 -3.39225 -0.769775 0.918225 -1.234125 2.1004 -1.234125 3.39225Z" stroke-width="0.25"></path>
  <path fill="#0c5e87" d="M3.443975 15.44475c0.64225 0.2775 1.349225 0.432925 2.0934 0.432925 1.9473 0 3.643825 -1.055425 4.56165 -2.622475 -0.64225 -0.277525 -1.349625 -0.43255 -2.093425 -0.43255 -1.947275 0 -3.644175 1.055425 -4.561625 2.6221Z" stroke-width="0.25"></path>
  <path fill="#6b0001" d="M6.735025 5.443625c-0.0124 0.147275 -0.022875 0.29535 -0.022875 0.446125 0 2.50775 1.747675 4.602725 4.090325 5.14615 0.012025 -0.1473 0.022475 -0.29535 0.022475 -0.44575 0 -2.50775 -1.747275 -4.6035 -4.089925 -5.146525Z" stroke-width="0.25"></path>
  <path fill="#ffffff" d="M7.22855 17.45595h-0.827125c-0.730225 0 -1.324025 -0.591875 -1.324025 -1.32015V8.64895c0 -0.7283 0.5938 -1.32055 1.324025 -1.32055h10.371725c0.73025 0 1.32365 0.59225 1.32365 1.32055v7.48685c0 0.728275 -0.5934 1.32015 -1.32365 1.32015H13.239825L6.15065 20.93115l1.0779 -3.4752Z" stroke-width="0.25"></path>
</svg>