<svg width="100" height="100" viewBox="0 0 100 100" fill="none" xmlns="http://www.w3.org/2000/svg">
<g id="zod">
<g id="zod_2">
<path id="Vector" d="M93.2204 31.4919L77.4058 14.9834H23.34L6.74579 31.4919L48.4547 81.7142L93.2204 31.4919Z" fill="#142641"/>
<path id="Union" fill-rule="evenodd" clip-rule="evenodd" d="M56.1396 12.8362L53.2084 14.5291L52.4945 13.2929L50.7877 14.2779L49.9542 12.8362L47.3619 14.3327L46.4985 12.8362L46.1905 13.0137L45.2463 11.3786L44.8086 11.6308L44.005 10.239L5.50452 32.4663L6.74579 34.6159L7.18248 34.3636L7.98707 35.7555L8.29415 35.578L9.23931 37.2141L9.61618 36.9957L10.2164 38.0356L10.3609 37.9519L10.9302 38.9379L12.1715 41.0875L57.3809 14.9858L56.1396 12.8362ZM72.4756 56.488H55.6581V58.152H34.4033L88.7159 26.7939L82.676 16.3323L81.4636 17.0322L80.6311 15.5906L67.0469 23.434L67.8794 24.8747L22.6002 51.0163L28.6411 61.4789L28.8834 61.339V64.5608H33.2932V69.8719H64.7229V64.5608H69.4557V58.2926H72.4756V56.488Z" fill="#274D82"/>
<path id="Vector_2" fill-rule="evenodd" clip-rule="evenodd" d="M79.5334 9.99902H21.2822L0 31.1725L48.318 89.3609L52.1735 85.0359L100 31.3709L79.5334 9.99902ZM77.4058 14.9841L93.2203 31.4925L48.4546 81.7149L6.74576 31.4925L23.34 14.9841H77.4058Z" fill="#3068B7"/>
</g>
</g>
</svg>
